# Blender 4.4.0
# www.blender.org
mtllib Box_test.mtl
o Box_1.001
v 0.400000 0.400000 1.600000
v 0.400000 0.000000 1.600000
v 0.400000 0.400000 2.400000
v 0.400000 0.000000 2.400000
v -0.400000 0.400000 1.600000
v -0.400000 0.000000 1.600000
v -0.400000 0.400000 2.400000
v -0.400000 0.000000 2.400000
vn -0.0000 -0.0000 1.0000
vn -1.0000 -0.0000 -0.0000
vn -0.0000 -1.0000 -0.0000
vn 1.0000 -0.0000 -0.0000
vn -0.0000 -0.0000 -1.0000
vt 0.375000 0.750000
vt 0.625000 0.750000
vt 0.625000 1.000000
vt 0.375000 1.000000
vt 0.375000 0.000000
vt 0.625000 0.000000
vt 0.625000 0.250000
vt 0.375000 0.250000
vt 0.125000 0.500000
vt 0.375000 0.500000
vt 0.125000 0.750000
vt 0.625000 0.500000
s 0
usemtl Material
f 4/1/1 3/2/1 7/3/1 8/4/1
f 8/5/2 7/6/2 5/7/2 6/8/2
f 6/9/3 2/10/3 4/1/3 8/11/3
f 2/10/4 1/12/4 3/2/4 4/1/4
f 6/8/5 5/7/5 1/12/5 2/10/5
o BoxFlap_R.002
v 0.400000 0.400000 1.600000
v -0.400000 0.400000 1.600000
v 0.400000 0.746410 1.400000
v -0.400000 0.746410 1.400000
vn -0.0000 -0.5000 -0.8660
vt 0.625000 0.500000
vt 0.875000 0.500000
vt 0.875000 0.625000
vt 0.625000 0.625000
s 0
usemtl Material
f 9/13/6 10/14/6 12/15/6 11/16/6
o BoxFlap_L.002
v 0.400000 0.400000 2.400000
v -0.400000 0.400000 2.400000
v 0.400000 0.727661 2.629431
v -0.400000 0.727661 2.629431
vn -0.0000 -0.5736 0.8192
vt 0.625000 0.625000
vt 0.875000 0.625000
vt 0.875000 0.750000
vt 0.625000 0.750000
s 0
usemtl Material
f 15/17/7 16/18/7 14/19/7 13/20/7
