# This file uses centimeters as units for non-parametric coordinates.

mtllib lampara.mtl
g default
v -557.085236 82.345210 -783.941668
v -557.085236 105.939450 -783.941669
v -553.922806 82.345210 -783.094291
v -553.922806 105.939450 -783.094293
v -551.607734 82.345210 -780.779220
v -551.607734 105.939450 -780.779221
v -550.760358 82.345211 -777.616789
v -550.760358 105.939450 -777.616791
v -551.607734 82.345211 -774.454358
v -551.607734 105.939450 -774.454360
v -553.922806 82.345211 -772.139287
v -553.922806 105.939451 -772.139288
v -557.085236 82.345211 -771.291911
v -557.085236 105.939451 -771.291912
v -560.247667 82.345211 -772.139287
v -560.247667 105.939451 -772.139288
v -562.562739 82.345211 -774.454358
v -562.562739 105.939450 -774.454360
v -563.410115 82.345211 -777.616789
v -563.410115 105.939450 -777.616791
v -562.562739 82.345210 -780.779220
v -562.562739 105.939450 -780.779221
v -560.247667 82.345210 -783.094291
v -560.247667 105.939450 -783.094293
v -553.078093 101.735922 -784.557363
v -552.324493 97.458510 -785.864294
v -552.168491 94.452954 -786.132833
v -552.307677 91.279471 -785.891762
v -553.098323 87.002042 -784.522331
v -550.179695 87.002042 -781.603702
v -548.810264 91.279471 -782.394349
v -548.569193 94.452954 -782.533535
v -548.787268 97.456926 -782.407973
v -550.144664 101.735922 -781.623934
v -549.111394 87.002042 -777.616789
v -547.530118 91.279471 -777.616790
v -547.251762 94.452954 -777.616790
v -547.503384 97.456926 -777.616483
v -549.070967 101.735922 -777.616791
v -550.179695 87.002043 -773.629876
v -548.810264 91.279472 -772.839231
v -548.569193 94.452955 -772.700045
v -548.838569 97.458511 -772.854613
v -550.144664 101.735922 -773.609647
v -553.098323 87.002043 -770.711248
v -552.307677 91.279472 -769.341817
v -552.168491 94.452955 -769.100747
v -552.324493 97.458511 -769.368671
v -553.078093 101.735923 -770.676218
v -557.085236 87.002043 -769.642947
v -557.085236 91.279472 -768.061672
v -557.085236 94.452955 -767.783316
v -557.086380 97.458511 -768.092742
v -557.085236 101.735923 -769.602521
v -561.072149 87.002043 -770.711248
v -561.862795 91.279472 -769.341817
v -562.001982 94.452955 -769.100747
v -561.848250 97.458527 -769.368671
v -561.092380 101.735923 -770.676218
v -563.990778 87.002043 -773.629876
v -565.360209 91.279472 -772.839231
v -565.601279 94.452955 -772.700045
v -565.334192 97.458526 -772.854613
v -564.025809 101.735922 -773.609647
v -565.059079 87.002042 -777.616789
v -566.640354 91.279471 -777.616790
v -566.918711 94.452954 -777.616790
v -566.610121 97.458511 -777.616483
v -565.099505 101.735922 -777.616791
v -563.990778 87.002042 -781.603702
v -565.360209 91.279471 -782.394349
v -565.601279 94.452954 -782.533535
v -565.334192 97.458510 -782.378353
v -564.025809 101.735922 -781.623934
v -561.072149 87.002042 -784.522331
v -561.862795 91.279471 -785.891762
v -562.001982 94.452954 -786.132833
v -561.848250 97.458510 -785.864294
v -561.092380 101.735922 -784.557363
v -557.085236 87.002042 -785.590632
v -557.085236 91.279470 -787.171908
v -557.085236 94.452954 -787.450264
v -557.086380 97.458510 -787.140240
v -557.085236 101.735921 -785.631060
v -551.560735 105.939450 -774.629773
vt -5.196995 1.833213
vt -5.200978 1.833173
vt -5.210464 1.833076
vt -5.221346 1.832965
vt -5.213914 1.833029
vt -5.217897 1.832989
vt -5.193544 1.833029
vt -5.204426 1.832919
vt -5.196414 1.828340
vt -5.201461 1.828289
vt -5.208959 1.827954
vt -5.222747 1.827814
vt -5.213330 1.827895
vt -5.218376 1.827844
vt -5.192040 1.828107
vt -5.205829 1.827966
vt -5.195888 1.823353
vt -5.201885 1.823292
vt -5.190691 1.823076
vt -5.207076 1.822910
vt -5.207605 1.822742
vt -5.223991 1.822575
vt -5.212800 1.822672
vt -5.218797 1.822610
vt -5.195740 1.818405
vt -5.201932 1.818341
vt -5.190373 1.818119
vt -5.207292 1.817947
vt -5.207290 1.817723
vt -5.224208 1.817550
vt -5.212652 1.817650
vt -5.218845 1.817587
vt -5.195801 1.815865
vt -5.201818 1.815804
vt -5.190587 1.815587
vt -5.207026 1.815419
vt -5.207503 1.815204
vt -5.223943 1.815036
vt -5.212714 1.815133
vt -5.218731 1.815071
vt -5.196245 1.810469
vt -5.201266 1.810418
vt -5.191893 1.810237
vt -5.205612 1.810097
vt -5.208811 1.809979
vt -5.222529 1.809840
vt -5.213159 1.809921
vt -5.218181 1.809869
vt -5.196704 1.804604
vt -5.200687 1.804563
vt -5.210171 1.804292
vt -5.221053 1.804181
vt -5.210171 1.804281
vt -5.213621 1.804246
vt -5.217604 1.804205
vt -5.221053 1.804170
vt -5.220861 1.804147
vt -5.193252 1.804420
vt -5.193252 1.804420
vt -5.204134 1.804309
vt -5.204134 1.804309
vt -5.196702 1.804373
vt -5.200685 1.804332
vt -5.213616 1.803796
vt -5.217599 1.803755
vt -5.191746 1.799298
vt -5.205535 1.799158
vt -5.196117 1.799239
vt -5.201164 1.799187
vt -5.208663 1.798971
vt -5.222452 1.798831
vt -5.213029 1.798357
vt -5.218075 1.798306
vt -5.190396 1.794085
vt -5.206782 1.793918
vt -5.195590 1.794015
vt -5.201588 1.793954
vt -5.207310 1.793608
vt -5.223696 1.793441
vt -5.212479 1.792861
vt -5.218513 1.792800
vt -5.190077 1.789067
vt -5.206996 1.788894
vt -5.195440 1.788994
vt -5.201632 1.788930
vt -5.206994 1.788660
vt -5.223912 1.788488
vt -5.212349 1.787906
vt -5.218542 1.787844
vt -5.190291 1.786547
vt -5.206730 1.786380
vt -5.195502 1.786476
vt -5.201519 1.786415
vt -5.207209 1.786258
vt -5.223648 1.786090
vt -5.212413 1.785526
vt -5.218430 1.785465
vt -5.208520 1.781468
vt -5.222239 1.781328
vt -5.191598 1.781323
vt -5.205317 1.781183
vt -5.195947 1.781264
vt -5.200968 1.781213
vt -5.212863 1.780856
vt -5.217885 1.780805
vt -5.209886 1.776239
vt -5.220767 1.776128
vt -5.213330 1.775754
vt -5.217313 1.775713
vt -5.192959 1.775635
vt -5.203841 1.775524
vt -5.196408 1.775589
vt -5.200391 1.775548
vn 0.669055 -0.323624 -0.669054
vn 0.669055 -0.323624 -0.669054
vn 0.673716 -0.323885 -0.664233
vn 0.664233 -0.323884 -0.673716
vn 0.913945 -0.323624 -0.244893
vn 0.913945 -0.323624 -0.244893
vn 0.915588 -0.323872 -0.238341
vn 0.912082 -0.323901 -0.251385
vn 0.913945 -0.323624 0.244893
vn 0.913945 -0.323624 0.244893
vn 0.912082 -0.323901 0.251385
vn 0.915588 -0.323872 0.238341
vn 0.669055 -0.323623 0.669055
vn 0.669055 -0.323623 0.669055
vn 0.664233 -0.323884 0.673716
vn 0.673716 -0.323885 0.664233
vn 0.244893 -0.323624 0.913945
vn 0.244893 -0.323624 0.913945
vn 0.238341 -0.323872 0.915587
vn 0.251385 -0.323901 0.912082
vn -0.244893 -0.323624 0.913945
vn -0.244893 -0.323624 0.913945
vn -0.251384 -0.323901 0.912082
vn -0.238341 -0.323872 0.915588
vn -0.669055 -0.323623 0.669055
vn -0.669055 -0.323623 0.669055
vn -0.673716 -0.323885 0.664233
vn -0.664233 -0.323884 0.673716
vn -0.913945 -0.323624 0.244893
vn -0.913945 -0.323624 0.244893
vn -0.915588 -0.323872 0.238341
vn -0.912082 -0.323901 0.251385
vn -0.913945 -0.323624 -0.244893
vn -0.913945 -0.323624 -0.244893
vn -0.912082 -0.323901 -0.251384
vn -0.915588 -0.323872 -0.238341
vn -0.669055 -0.323624 -0.669054
vn -0.669055 -0.323624 -0.669054
vn -0.664233 -0.323884 -0.673716
vn -0.673716 -0.323885 -0.664233
vn -0.244893 -0.323624 -0.913945
vn -0.244893 -0.323624 -0.913945
vn -0.238341 -0.323872 -0.915587
vn -0.251384 -0.323901 -0.912082
vn 0.244893 -0.323624 -0.913945
vn 0.244893 -0.323624 -0.913945
vn 0.251384 -0.323901 -0.912082
vn 0.238341 -0.323872 -0.915588
vn 0.667706 -0.329966 -0.667302
vn 0.667302 -0.329966 -0.667705
vn 0.665924 -0.336288 -0.665924
vn 0.665924 -0.336288 -0.665924
vn 0.959293 0.116831 -0.257115
vn 0.965007 0.044027 -0.258500
vn 0.964971 0.044027 -0.258637
vn 0.959329 0.116831 -0.256980
vn 0.704582 -0.084425 -0.704582
vn 0.704582 -0.084425 -0.704582
vn 0.704582 -0.084425 -0.704582
vn 0.704582 -0.084425 -0.704582
vn 0.910602 0.333573 -0.243994
vn 0.910602 0.333573 -0.243994
vn 0.910602 0.333573 -0.243994
vn 0.910602 0.333573 -0.243994
vn 0.900455 0.361893 -0.241275
vn 0.900455 0.361893 -0.241275
vn 0.900455 0.361893 -0.241275
vn 0.900455 0.361893 -0.241275
vn 0.911913 -0.329919 -0.244068
vn 0.911763 -0.329920 -0.244623
vn 0.909670 -0.336287 -0.243747
vn 0.909670 -0.336287 -0.243747
vn 0.955923 0.132788 0.261876
vn 0.964860 0.046513 0.258616
vn 0.964904 0.046579 0.258438
vn 0.955862 0.132873 0.262054
vn 0.962478 -0.084423 -0.257895
vn 0.962478 -0.084423 -0.257895
vn 0.962478 -0.084423 -0.257895
vn 0.962478 -0.084423 -0.257895
vn 0.910939 0.328025 0.250179
vn 0.910939 0.328025 0.250179
vn 0.910939 0.328025 0.250179
vn 0.910939 0.328025 0.250179
vn 0.900455 0.361894 0.241275
vn 0.900455 0.361894 0.241275
vn 0.900455 0.361894 0.241275
vn 0.900455 0.361894 0.241275
vn 0.900455 0.361894 0.241275
vn 0.911763 -0.329920 0.244623
vn 0.911913 -0.329918 0.244068
vn 0.909670 -0.336287 0.243747
vn 0.909670 -0.336287 0.243747
vn 0.699348 0.148521 0.699181
vn 0.706176 0.049006 0.706339
vn 0.706344 0.049006 0.706170
vn 0.699180 0.148521 0.699349
vn 0.962478 -0.084423 0.257895
vn 0.962478 -0.084423 0.257895
vn 0.962478 -0.084423 0.257895
vn 0.962478 -0.084423 0.257895
vn 0.669321 0.322523 0.669319
vn 0.669321 0.322523 0.669319
vn 0.669321 0.322523 0.669319
vn 0.669321 0.322523 0.669319
vn 0.659178 0.361896 0.659178
vn 0.659178 0.361896 0.659178
vn 0.659178 0.361896 0.659178
vn 0.659178 0.361896 0.659178
vn 0.667302 -0.329966 0.667705
vn 0.667706 -0.329966 0.667302
vn 0.665924 -0.336288 0.665924
vn 0.665924 -0.336288 0.665924
vn 0.256072 0.148186 0.955232
vn 0.258396 0.048955 0.964798
vn 0.258625 0.048955 0.964737
vn 0.255843 0.148186 0.955293
vn 0.704582 -0.084425 0.704582
vn 0.704582 -0.084425 0.704582
vn 0.704582 -0.084425 0.704582
vn 0.704582 -0.084425 0.704582
vn 0.244975 0.322640 0.914271
vn 0.244975 0.322640 0.914271
vn 0.244975 0.322640 0.914271
vn 0.244975 0.322640 0.914271
vn 0.241275 0.361893 0.900455
vn 0.241275 0.361893 0.900455
vn 0.241275 0.361893 0.900455
vn 0.241275 0.361893 0.900455
vn 0.244068 -0.329918 0.911913
vn 0.244623 -0.329920 0.911763
vn 0.243747 -0.336287 0.909670
vn 0.243747 -0.336287 0.909670
vn -0.255860 0.147852 0.955341
vn -0.258627 0.048904 0.964739
vn -0.258391 0.048904 0.964802
vn -0.256088 0.147852 0.955279
vn 0.257895 -0.084423 0.962478
vn 0.257895 -0.084423 0.962478
vn 0.257895 -0.084423 0.962478
vn 0.257895 -0.084423 0.962478
vn -0.244964 0.322758 0.914232
vn -0.244964 0.322758 0.914232
vn -0.244964 0.322758 0.914232
vn -0.244964 0.322758 0.914232
vn -0.241275 0.361893 0.900455
vn -0.241275 0.361893 0.900455
vn -0.241275 0.361893 0.900455
vn -0.241275 0.361893 0.900455
vn -0.244622 -0.329920 0.911764
vn -0.244068 -0.329918 0.911913
vn -0.243747 -0.336287 0.909670
vn -0.243747 -0.336287 0.909670
vn -0.699276 0.147617 0.699444
vn -0.706344 0.048906 0.706177
vn -0.706177 0.048906 0.706344
vn -0.699443 0.147617 0.699278
vn -0.257895 -0.084423 0.962478
vn -0.257895 -0.084423 0.962478
vn -0.257895 -0.084423 0.962478
vn -0.257895 -0.084423 0.962478
vn -0.669243 0.322843 0.669243
vn -0.669243 0.322843 0.669243
vn -0.669243 0.322843 0.669243
vn -0.669243 0.322843 0.669243
vn -0.659178 0.361896 0.659178
vn -0.659178 0.361896 0.659178
vn -0.659178 0.361896 0.659178
vn -0.659178 0.361896 0.659178
vn -0.667706 -0.329966 0.667302
vn -0.667302 -0.329966 0.667705
vn -0.665924 -0.336288 0.665924
vn -0.665924 -0.336288 0.665924
vn -0.955327 0.147517 0.256103
vn -0.964802 0.048853 0.258398
vn -0.964741 0.048853 0.258626
vn -0.955388 0.147517 0.255876
vn -0.704582 -0.084425 0.704582
vn -0.704582 -0.084425 0.704582
vn -0.704582 -0.084425 0.704582
vn -0.704582 -0.084425 0.704582
vn -0.914193 0.322875 0.244954
vn -0.914193 0.322875 0.244954
vn -0.914193 0.322875 0.244954
vn -0.914193 0.322875 0.244954
vn -0.900455 0.361893 0.241275
vn -0.900455 0.361893 0.241275
vn -0.900455 0.361893 0.241275
vn -0.900455 0.361893 0.241275
vn -0.911913 -0.329918 0.244068
vn -0.911763 -0.329920 0.244623
vn -0.909670 -0.336287 0.243747
vn -0.909670 -0.336287 0.243747
vn -0.955375 0.147616 -0.255868
vn -0.964740 0.048858 -0.258629
vn -0.964804 0.048858 -0.258393
vn -0.955314 0.147616 -0.256095
vn -0.962478 -0.084423 0.257895
vn -0.962478 -0.084423 0.257895
vn -0.962478 -0.084423 0.257895
vn -0.962478 -0.084423 0.257895
vn -0.914204 0.322843 -0.244958
vn -0.914204 0.322843 -0.244958
vn -0.914204 0.322843 -0.244958
vn -0.914204 0.322843 -0.244958
vn -0.900455 0.361893 -0.241275
vn -0.900455 0.361893 -0.241275
vn -0.900455 0.361893 -0.241275
vn -0.900455 0.361893 -0.241275
vn -0.911763 -0.329920 -0.244623
vn -0.911913 -0.329919 -0.244068
vn -0.909670 -0.336287 -0.243747
vn -0.909670 -0.336287 -0.243747
vn -0.699420 0.147854 -0.699250
vn -0.706176 0.048906 -0.706346
vn -0.706343 0.048906 -0.706178
vn -0.699254 0.147854 -0.699417
vn -0.962478 -0.084423 -0.257895
vn -0.962478 -0.084423 -0.257895
vn -0.962478 -0.084423 -0.257895
vn -0.962478 -0.084423 -0.257895
vn -0.669264 0.322756 -0.669264
vn -0.669264 0.322756 -0.669264
vn -0.669264 0.322756 -0.669264
vn -0.669264 0.322756 -0.669264
vn -0.659178 0.361896 -0.659178
vn -0.659178 0.361896 -0.659178
vn -0.659178 0.361896 -0.659178
vn -0.659178 0.361896 -0.659178
vn -0.667302 -0.329966 -0.667705
vn -0.667706 -0.329966 -0.667302
vn -0.665924 -0.336288 -0.665924
vn -0.665924 -0.336288 -0.665924
vn -0.256080 0.148185 -0.955230
vn -0.258392 0.048954 -0.964799
vn -0.258621 0.048953 -0.964738
vn -0.255851 0.148185 -0.955291
vn -0.704582 -0.084425 -0.704582
vn -0.704582 -0.084425 -0.704582
vn -0.704582 -0.084425 -0.704582
vn -0.704582 -0.084425 -0.704582
vn -0.244977 0.322641 -0.914270
vn -0.244977 0.322641 -0.914270
vn -0.244977 0.322641 -0.914270
vn -0.244977 0.322641 -0.914270
vn -0.241275 0.361893 -0.900455
vn -0.241275 0.361893 -0.900455
vn -0.241275 0.361893 -0.900455
vn -0.241275 0.361893 -0.900455
vn -0.244068 -0.329919 -0.911913
vn -0.244623 -0.329920 -0.911763
vn -0.243747 -0.336287 -0.909670
vn -0.243747 -0.336287 -0.909670
vn 0.255831 0.148519 -0.955245
vn 0.258624 0.049004 -0.964734
vn 0.258394 0.049004 -0.964796
vn 0.256060 0.148519 -0.955183
vn -0.257895 -0.084423 -0.962478
vn -0.257895 -0.084423 -0.962478
vn -0.257895 -0.084423 -0.962478
vn -0.257895 -0.084423 -0.962478
vn 0.244987 0.322524 -0.914308
vn 0.244987 0.322524 -0.914308
vn 0.244987 0.322524 -0.914308
vn 0.244987 0.322524 -0.914308
vn 0.241275 0.361893 -0.900455
vn 0.241275 0.361893 -0.900455
vn 0.241275 0.361893 -0.900455
vn 0.241275 0.361893 -0.900455
vn 0.243747 -0.336287 -0.909670
vn 0.244622 -0.329920 -0.911763
vn 0.244068 -0.329919 -0.911913
vn 0.243747 -0.336287 -0.909670
vn 0.257895 -0.084423 -0.962478
vn 0.257895 -0.084423 -0.962478
vn 0.257895 -0.084423 -0.962478
vn 0.257895 -0.084423 -0.962478
vn 0.663808 0.328023 -0.672131
vn 0.663808 0.328023 -0.672131
vn 0.663808 0.328023 -0.672131
vn 0.663808 0.328023 -0.672131
vn 0.659178 0.361896 -0.659178
vn 0.659178 0.361896 -0.659178
vn 0.659178 0.361896 -0.659178
vn 0.659178 0.361896 -0.659178
vn 0.696778 0.132875 -0.704872
vn 0.706408 0.046580 -0.706270
vn 0.706285 0.046515 -0.706398
vn 0.696919 0.132790 -0.704748
s off
g Lampara_DONE
usemtl initialShadingGroup
f 5/108/1 3/106/2 29/98/3 30/104/4
f 7/109/5 5/108/6 30/104/7 35/105/8
f 9/107/9 7/109/10 35/105/11 40/99/12
f 11/112/13 9/110/14 40/100/15 45/102/16
f 13/113/17 11/112/18 45/102/19 50/103/20
f 15/111/21 13/113/22 50/103/23 55/101/24
f 17/49/25 15/59/26 55/43/27 60/41/28
f 19/50/29 17/49/30 60/41/31 65/42/32
f 21/61/33 19/50/34 65/42/35 70/44/36
f 23/54/37 21/51/38 70/45/39 75/47/40
f 1/55/41 23/54/42 75/47/43 80/48/44
f 3/52/45 1/55/46 80/48/47 29/46/48
f 30/104/49 29/98/50 28/94/51 31/96/52
f 38/81/53 37/89/54 32/88/55 33/80/56
f 27/86/57 32/88/58 31/96/59 28/94/60
f 38/81/61 33/80/62 34/72/63 39/73/64
f 8/65/65 39/73/66 34/72/67 6/64/68
f 35/105/69 30/104/70 31/96/71 36/97/72
f 43/79/73 42/87/74 37/89/75 38/81/76
f 32/88/77 37/89/78 36/97/79 31/96/80
f 43/79/81 38/81/82 39/73/83 44/71/84
f 10/56/85 44/71/86 39/73/87 8/65/88 85/57/89
f 40/99/90 35/105/91 36/97/92 41/95/93
f 48/76/94 47/84/95 42/82/96 43/74/97
f 37/89/98 42/87/99 41/95/100 36/97/101
f 48/76/102 43/74/103 44/66/104 49/68/105
f 12/62/106 49/68/107 44/66/108 10/58/109
f 45/102/110 40/100/111 41/90/112 46/92/113
f 53/77/114 52/85/115 47/84/116 48/76/117
f 42/82/118 47/84/119 46/92/120 41/90/121
f 53/77/122 48/76/123 49/68/124 54/69/125
f 14/63/126 54/69/127 49/68/128 12/62/129
f 50/103/130 45/102/131 46/92/132 51/93/133
f 58/75/134 57/83/135 52/85/136 53/77/137
f 47/84/138 52/85/139 51/93/140 46/92/141
f 58/75/142 53/77/143 54/69/144 59/67/145
f 16/60/146 59/67/147 54/69/148 14/63/149
f 55/101/150 50/103/151 51/93/152 56/91/153
f 63/17/154 62/25/155 57/27/156 58/19/157
f 52/85/158 57/83/159 56/91/160 51/93/161
f 63/17/162 58/19/163 59/15/164 64/9/165
f 18/1/166 64/9/167 59/15/168 16/7/169
f 60/41/170 55/43/171 56/35/172 61/33/173
f 68/18/174 67/26/175 62/25/176 63/17/177
f 57/27/178 62/25/179 61/33/180 56/35/181
f 68/18/182 63/17/183 64/9/184 69/10/185
f 20/2/186 69/10/187 64/9/188 18/1/189
f 65/42/190 60/41/191 61/33/192 66/34/193
f 73/20/194 72/28/195 67/26/196 68/18/197
f 62/25/198 67/26/199 66/34/200 61/33/201
f 73/20/202 68/18/203 69/10/204 74/16/205
f 22/8/206 74/16/207 69/10/208 20/2/209
f 70/44/210 65/42/211 66/34/212 71/36/213
f 78/23/214 77/31/215 72/29/216 73/21/217
f 67/26/218 72/28/219 71/36/220 66/34/221
f 78/23/222 73/21/223 74/11/224 79/13/225
f 24/5/226 79/13/227 74/11/228 22/3/229
f 75/47/230 70/45/231 71/37/232 76/39/233
f 83/24/234 82/32/235 77/31/236 78/23/237
f 72/29/238 77/31/239 76/39/240 71/37/241
f 83/24/242 78/23/243 79/13/244 84/14/245
f 2/6/246 84/14/247 79/13/248 24/5/249
f 80/48/250 75/47/251 76/39/252 81/40/253
f 26/22/254 27/30/255 82/32/256 83/24/257
f 77/31/258 82/32/259 81/40/260 76/39/261
f 25/12/262 26/22/263 83/24/264 84/14/265
f 4/4/266 25/12/267 84/14/268 2/6/269
f 28/38/270 29/46/271 80/48/272 81/40/273
f 82/32/274 27/30/275 28/38/276 81/40/277
f 33/80/278 26/78/279 25/70/280 34/72/281
f 6/64/282 34/72/283 25/70/284 4/53/285
f 33/80/286 32/88/287 27/86/288 26/78/289
g default
v -557.085236 101.935458 -790.295593
v -557.085236 119.127055 -783.443795
v -550.745835 101.935458 -788.596961
v -554.171726 119.127055 -782.663121
v -546.105066 101.935459 -783.956192
v -552.038907 119.127055 -780.530302
v -544.406434 101.935459 -777.616791
v -551.258234 119.127055 -777.616792
v -546.105066 101.935460 -771.277389
v -552.038907 119.127055 -774.703281
v -550.745835 101.935460 -766.636620
v -554.171726 119.127055 -772.570462
v -557.085236 101.935460 -764.937988
v -557.085236 119.127055 -771.789789
v -563.424637 101.935460 -766.636620
v -559.998747 119.127055 -772.570462
v -568.065406 101.935460 -771.277389
v -562.131566 119.127055 -774.703281
v -569.764038 101.935459 -777.616791
v -562.912239 119.127055 -777.616792
v -568.065406 101.935459 -783.956192
v -562.131566 119.127055 -780.530302
v -563.424637 101.935458 -788.596961
v -559.998747 119.127055 -782.663121
v -557.085236 119.127055 -777.616757
v -559.998746 119.127055 -777.616774
v -554.171770 119.127055 -777.616774
vt -5.147795 1.858732
vt -5.153140 1.864118
vt -5.159345 1.868485
vt -5.166220 1.871697
vt -5.165726 1.843828
vt -5.239209 1.843814
vt -5.173551 1.873655
vt -5.237262 1.841002
vt -5.234170 1.839541
vt -5.181112 1.874298
vt -5.230762 1.839822
vt -5.227951 1.841769
vt -5.235126 1.843522
vt -5.226490 1.844860
vt -5.188668 1.873606
vt -5.226770 1.848269
vt -5.232990 1.846041
vt -5.230854 1.848560
vt -5.228717 1.851080
vt -5.195987 1.871602
vt -5.231809 1.852541
vt -5.235217 1.852260
vt -5.202841 1.868347
vt -5.238028 1.850313
vt -5.239490 1.847222
vt -5.209019 1.863941
vt -5.214330 1.858521
vt -5.218609 1.852255
vt -5.221724 1.845335
vt -5.184511 1.850664
vt -5.181038 1.850982
vt -5.187874 1.849743
vt -5.191024 1.848246
vt -5.193864 1.846222
vt -5.196305 1.843731
vt -5.198271 1.840851
vt -5.199702 1.837671
vt -5.171034 1.848310
vt -5.168182 1.846303
vt -5.174194 1.849786
vt -5.177563 1.850686
vn 0.241538 0.359271 -0.901434
vn 0.241538 0.359271 -0.901434
vn 0.241538 0.359271 -0.901434
vn 0.241538 0.359271 -0.901434
vn 0.659896 0.359271 -0.659896
vn 0.659896 0.359271 -0.659896
vn 0.659896 0.359271 -0.659896
vn 0.659896 0.359271 -0.659896
vn 0.901434 0.359271 -0.241538
vn 0.901434 0.359271 -0.241538
vn 0.901434 0.359271 -0.241538
vn 0.901434 0.359271 -0.241538
vn 0.901434 0.359271 0.241538
vn 0.901434 0.359271 0.241538
vn 0.901434 0.359271 0.241538
vn 0.901434 0.359271 0.241538
vn 0.659896 0.359271 0.659896
vn 0.659896 0.359271 0.659896
vn 0.659896 0.359271 0.659896
vn 0.659896 0.359271 0.659896
vn 0.241538 0.359271 0.901434
vn 0.241538 0.359271 0.901434
vn 0.241538 0.359271 0.901434
vn 0.241538 0.359271 0.901434
vn -0.241538 0.359271 0.901434
vn -0.241538 0.359271 0.901434
vn -0.241538 0.359271 0.901434
vn -0.241538 0.359271 0.901434
vn -0.659896 0.359271 0.659896
vn -0.659896 0.359271 0.659896
vn -0.659896 0.359271 0.659896
vn -0.659896 0.359271 0.659896
vn -0.901434 0.359271 0.241538
vn -0.901434 0.359271 0.241538
vn -0.901434 0.359271 0.241538
vn -0.901434 0.359271 0.241538
vn -0.901434 0.359271 -0.241538
vn -0.901434 0.359271 -0.241538
vn -0.901434 0.359271 -0.241538
vn -0.901434 0.359271 -0.241538
vn -0.659896 0.359271 -0.659896
vn -0.659896 0.359271 -0.659896
vn -0.659896 0.359271 -0.659896
vn -0.659896 0.359271 -0.659896
vn -0.241538 0.359271 -0.901434
vn -0.241538 0.359271 -0.901434
vn -0.241538 0.359271 -0.901434
vn -0.241538 0.359271 -0.901434
vn 0.000000 1.000000 -0.000000
vn 0.000000 1.000000 -0.000000
vn 0.000000 1.000000 -0.000000
vn 0.000000 1.000000 -0.000000
vn 0.000000 1.000000 -0.000000
vn 0.000000 1.000000 -0.000000
vn 0.000000 1.000000 -0.000000
vn 0.000000 1.000000 -0.000000
vn 0.000000 1.000000 -0.000000
vn 0.000000 1.000000 -0.000000
vn 0.000000 1.000000 -0.000000
vn 0.000000 1.000000 -0.000000
vn 0.000000 1.000000 -0.000000
vn 0.000000 1.000000 -0.000000
vn 0.000000 1.000000 -0.000000
vn 0.000000 1.000000 -0.000000
vn 0.000000 1.000000 -0.000000
vn 0.000000 1.000000 -0.000000
vn 0.000000 1.000000 -0.000000
vn 0.000000 1.000000 -0.000000
vn 0.000000 1.000000 0.000000
vn 0.000000 1.000000 0.000000
vn 0.000000 1.000000 0.000000
vn 0.000000 1.000000 0.000000
vn 0.000000 1.000000 -0.000000
vn 0.000000 1.000000 -0.000000
vn 0.000000 1.000000 -0.000000
vn 0.000000 1.000000 -0.000000
vn 0.000000 1.000000 0.000000
vn 0.000000 1.000000 0.000000
vn 0.000000 1.000000 0.000000
vn 0.000000 1.000000 0.000000
s off
g Lampara_DONE Lampara_Top
usemtl initialShadingGroup
f 86/123/290 87/144/291 89/154/292 88/120/293
f 88/120/294 89/154/295 91/153/296 90/117/297
f 90/117/298 91/153/299 93/151/300 92/116/301
f 92/116/302 93/151/303 95/152/304 94/115/305
f 94/115/306 95/152/307 97/118/308 96/114/309
f 96/142/310 97/150/311 99/149/312 98/141/313
f 98/141/314 99/149/315 101/148/316 100/140/317
f 100/140/318 101/148/319 103/147/320 102/139/321
f 102/139/322 103/147/323 105/146/324 104/136/325
f 104/136/326 105/146/327 107/145/328 106/133/329
f 106/133/330 107/145/331 109/143/332 108/128/333
f 108/128/334 109/143/335 87/144/336 86/123/337
f 87/125/338 109/127/339 111/131/340 110/130/341
f 99/137/342 97/138/343 112/126/344 110/130/345
f 110/130/346 112/126/347 89/124/348 87/125/349
f 110/130/350 111/131/351 101/135/352 99/137/353
f 101/135/354 111/131/355 105/132/356 103/134/357
f 111/131/358 109/127/359 107/129/360 105/132/361
f 112/126/362 97/138/363 95/119/364 93/121/365
f 89/124/366 112/126/367 93/121/368 91/122/369
