# This file uses centimeters as units for non-parametric coordinates.

mtllib lata.mtl
g default
v -554.149738 85.053440 -806.706456
v -557.685261 85.053440 -808.170934
v -561.220783 85.053440 -806.706456
v -562.685253 85.053440 -803.170934
v -561.220783 85.053440 -799.635403
v -557.685261 85.053440 -798.170934
v -554.149738 85.053440 -799.635403
v -552.685261 85.053440 -803.170934
v -554.149738 98.053433 -806.706456
v -557.685261 98.053433 -808.170934
v -561.220783 98.053433 -806.706456
v -562.685253 98.053433 -803.170934
v -561.220783 98.053433 -799.635403
v -557.685261 98.053433 -798.170934
v -554.149738 98.053433 -799.635403
v -552.685261 98.053433 -803.170934
v -554.606373 84.116825 -806.249852
v -557.685261 84.116825 -807.525182
v -560.764148 84.116825 -806.249852
v -562.039509 84.116825 -803.170934
v -560.764148 84.116825 -800.092007
v -557.685261 84.116825 -798.816685
v -554.606373 84.116825 -800.092007
v -553.331012 84.116825 -803.170934
v -554.606373 98.990055 -806.249852
v -557.685261 98.990055 -807.525182
v -560.764148 98.990055 -806.249852
v -562.039509 98.990055 -803.170934
v -560.764148 98.990055 -800.092007
v -557.685261 98.990055 -798.816685
v -554.606373 98.990055 -800.092007
v -553.331012 98.990055 -803.170934
vt -5.136758 1.769256
vt -5.132515 1.769290
vt -5.132280 1.783829
vt -5.136592 1.783958
vt -5.128259 1.769216
vt -5.127992 1.783752
vt -5.123993 1.769126
vt -5.123716 1.783671
vt -5.119720 1.769043
vt -5.119451 1.783584
vt -5.115431 1.768962
vt -5.115193 1.783513
vt -5.111117 1.768832
vt -5.110946 1.783548
vt -5.106736 1.768418
vt -5.140910 1.784430
vt -5.136606 1.768060
vt -5.133501 1.765937
vt -5.132822 1.762240
vt -5.134969 1.759145
vt -5.138689 1.758475
vt -5.141808 1.760633
vt -5.142501 1.764364
vt -5.140367 1.767492
vt -5.132232 1.785074
vt -5.136466 1.785171
vt -5.127975 1.785000
vt -5.123713 1.784920
vt -5.119462 1.784832
vt -5.115242 1.784758
vt -5.111112 1.784777
vt -5.140291 1.785766
vt -5.142394 1.788909
vt -5.141665 1.792634
vt -5.138522 1.794770
vt -5.134796 1.794075
vt -5.132661 1.790965
vt -5.133356 1.787273
vt -5.111276 1.767587
vt -5.115482 1.767715
vt -5.119737 1.767795
vt -5.123998 1.767878
vt -5.128248 1.767969
vt -5.132466 1.768048
vt -5.106757 1.783946
vt -5.107281 1.785182
vt -5.140920 1.768800
vt -5.107285 1.767153
vn 0.382453 -0.034897 -0.923316
vn 0.382453 -0.034898 -0.923316
vn 0.382453 0.034898 -0.923316
vn 0.382453 0.034897 -0.923316
vn -0.382453 -0.034898 -0.923316
vn -0.382453 -0.034897 -0.923316
vn -0.382453 0.034897 -0.923316
vn -0.382453 0.034898 -0.923316
vn -0.923316 -0.034898 -0.382452
vn -0.923316 -0.034898 -0.382452
vn -0.923316 0.034898 -0.382452
vn -0.923316 0.034898 -0.382452
vn -0.923316 -0.034898 0.382452
vn -0.923316 -0.034899 0.382452
vn -0.923316 0.034899 0.382452
vn -0.923316 0.034899 0.382452
vn -0.382452 -0.034897 0.923316
vn -0.382452 -0.034898 0.923316
vn -0.382452 0.034898 0.923316
vn -0.382452 0.034897 0.923316
vn 0.382452 -0.034898 0.923316
vn 0.382452 -0.034897 0.923316
vn 0.382452 0.034897 0.923316
vn 0.382452 0.034898 0.923316
vn 0.923315 -0.034899 0.382454
vn 0.923316 -0.034898 0.382454
vn 0.923316 0.034899 0.382454
vn 0.923315 0.034899 0.382453
vn 0.923315 -0.034899 -0.382454
vn 0.923315 -0.034899 -0.382454
vn 0.923315 0.034899 -0.382454
vn 0.923315 0.034898 -0.382454
vn 0.322769 -0.537240 -0.779226
vn 0.322770 -0.537240 -0.779226
vn -0.322770 -0.537241 -0.779225
vn -0.322770 -0.537241 -0.779225
vn -0.779226 -0.537241 -0.322768
vn -0.779226 -0.537241 -0.322768
vn -0.779223 -0.537245 0.322768
vn -0.779223 -0.537245 0.322768
vn -0.322768 -0.537237 0.779228
vn -0.322768 -0.537237 0.779228
vn 0.322768 -0.537239 0.779227
vn 0.322768 -0.537239 0.779227
vn 0.779222 -0.537245 0.322770
vn 0.779222 -0.537245 0.322770
vn 0.779221 -0.537247 -0.322769
vn 0.779221 -0.537247 -0.322769
vn 0.322771 0.537235 -0.779229
vn 0.322771 0.537235 -0.779229
vn -0.322771 0.537238 -0.779227
vn -0.322771 0.537238 -0.779227
vn -0.779227 0.537237 -0.322772
vn -0.779227 0.537237 -0.322772
vn -0.779225 0.537243 0.322768
vn -0.779225 0.537243 0.322768
vn -0.322769 0.537235 0.779229
vn -0.322769 0.537235 0.779229
vn 0.322769 0.537238 0.779227
vn 0.322769 0.537238 0.779227
vn 0.779223 0.537244 0.322770
vn 0.779223 0.537244 0.322770
vn 0.779223 0.537243 -0.322772
vn 0.779223 0.537243 -0.322772
vn 0.000000 1.000000 -0.000000
vn 0.000000 1.000000 -0.000000
vn 0.000000 1.000000 -0.000000
vn 0.000000 1.000000 -0.000000
vn 0.000000 1.000000 -0.000000
vn 0.000000 1.000000 -0.000000
vn 0.000000 1.000000 -0.000000
vn 0.000000 1.000000 -0.000000
vn 0.000000 -1.000000 -0.000000
vn 0.000000 -1.000000 -0.000000
vn 0.000000 -1.000000 -0.000000
vn 0.000000 -1.000000 -0.000000
vn 0.000000 -1.000000 -0.000000
vn 0.000000 -1.000000 -0.000000
vn 0.000000 -1.000000 -0.000000
vn 0.000000 -1.000000 -0.000000
s 1
g Lata_DONE
usemtl initialShadingGroup
f 1/1/1 2/2/2 10/3/3 9/4/4
s 2
f 2/2/5 3/5/6 11/6/7 10/3/8
s 3
f 3/5/9 4/7/10 12/8/11 11/6/12
s 4
f 4/7/13 5/9/14 13/10/15 12/8/16
s 5
f 5/9/17 6/11/18 14/12/19 13/10/20
s 6
f 6/11/21 7/13/22 15/14/23 14/12/24
s 7
f 7/13/25 8/15/26 16/45/27 15/14/28
s 8
f 8/47/29 1/1/30 9/4/31 16/16/32
s 1
f 2/2/2 1/1/1 17/17/33 18/44/34
s 2
f 3/5/6 2/2/5 18/44/35 19/43/36
s 3
f 4/7/10 3/5/9 19/43/37 20/42/38
s 4
f 5/9/14 4/7/13 20/42/39 21/41/40
s 5
f 6/11/18 5/9/17 21/41/41 22/40/42
s 6
f 7/13/22 6/11/21 22/40/43 23/39/44
s 7
f 8/15/26 7/13/25 23/39/45 24/48/46
s 8
f 1/1/30 8/47/29 24/24/47 17/17/48
s 1
f 9/4/4 10/3/3 26/25/49 25/26/50
s 2
f 10/3/8 11/6/7 27/27/51 26/25/52
s 3
f 11/6/12 12/8/11 28/28/53 27/27/54
s 4
f 12/8/16 13/10/15 29/29/55 28/28/56
s 5
f 13/10/20 14/12/19 30/30/57 29/29/58
s 6
f 14/12/24 15/14/23 31/31/59 30/30/60
s 7
f 15/14/28 16/45/27 32/46/61 31/31/62
s 8
f 16/16/32 9/4/31 25/26/63 32/32/64
s off
f 26/38/65 27/37/66 28/36/67 29/35/68 30/34/69 31/33/70 32/32/71 25/26/72
f 18/18/73 17/17/74 24/24/75 23/23/76 22/22/77 21/21/78 20/20/79 19/19/80
