# This file uses centimeters as units for non-parametric coordinates.

mtllib mesa_cuarto.mtl
g default
v -540.582357 77.178837 -748.837178
v -540.582357 83.973009 -748.837179
v -540.582357 83.973008 -755.849788
v -540.582357 77.178836 -755.849787
v -540.582357 77.178825 -827.240177
v -540.582357 83.973013 -827.240178
v -540.582357 83.972997 -820.227535
v -540.582357 77.178809 -820.227534
v -548.039686 83.973009 -748.837179
v -548.039686 83.973008 -755.849788
v -548.039686 77.178837 -748.837178
v -548.039686 77.178836 -755.849787
v -548.039686 83.973013 -827.240178
v -548.039686 83.972997 -820.227535
v -548.039686 77.178825 -827.240177
v -548.039686 77.178809 -820.227532
v -540.582357 -0.030164 -748.837165
v -540.582357 -0.030165 -755.849775
v -540.582357 -0.030168 -827.240164
v -540.582357 -0.030167 -820.227455
v -548.039686 -0.030164 -748.837165
v -548.039686 -0.030165 -755.849775
v -548.039686 -0.030168 -827.240164
v -548.039686 -0.030166 -820.227453
v -617.585304 83.973009 -748.837179
v -617.585304 83.973008 -755.849788
v -617.585304 77.178837 -748.837178
v -617.585304 77.178836 -755.849787
v -617.585304 83.973013 -827.240178
v -617.585304 83.972997 -820.227535
v -617.585304 77.178825 -827.240177
v -617.585304 77.178809 -820.227534
v -694.588201 77.178837 -748.837178
v -694.588201 83.973009 -748.837179
v -694.588201 83.973008 -755.849788
v -694.588201 77.178836 -755.849787
v -694.588184 77.178825 -827.240177
v -694.588184 83.973013 -827.240178
v -694.588184 83.972997 -820.227535
v -694.588184 77.178809 -820.227534
v -687.130855 83.973009 -748.837179
v -687.130855 83.973008 -755.849788
v -687.130855 77.178837 -748.837178
v -687.130855 77.178836 -755.849787
v -687.130855 83.973013 -827.240178
v -687.130855 83.972997 -820.227535
v -687.130855 77.178825 -827.240177
v -687.130855 77.178809 -820.227534
v -694.588201 -0.030164 -748.837165
v -694.588201 -0.030165 -755.849775
v -694.588184 -0.030168 -827.240164
v -694.588184 -0.030167 -820.227455
v -687.130855 -0.030164 -748.837165
v -687.130855 -0.030165 -755.849775
v -687.130855 -0.030168 -827.240164
v -687.130855 -0.030167 -820.227455
vt -2.063998 4.475273
vt -2.310939 4.075573
vt -2.310993 4.051072
vt -2.099849 4.475425
vt -2.579977 4.076173
vt -2.580032 4.051672
vt -2.337048 4.051130
vt -2.336994 4.075631
vt -2.579475 4.301101
vt -2.336492 4.300558
vt -2.578811 4.598769
vt -2.025873 4.475111
vt -2.137974 4.475587
vt -2.580085 4.027934
vt -2.140450 4.464280
vt -2.310436 4.300500
vt -2.048716 4.464285
vt -2.110505 4.464282
vt -2.310382 4.325002
vt -2.336437 4.325059
vt -2.579367 4.349340
vt -2.078661 4.464284
vt -2.579313 4.373842
vt -2.027552 4.080387
vt -2.139653 4.080863
vt -2.579420 4.325602
vt -2.101529 4.080702
vt -2.101681 4.044850
vt -2.110485 4.134585
vt -2.140430 4.134583
vt -2.172275 4.134581
vt -2.078641 4.134587
vt -2.141464 4.470268
vt -2.110521 4.470273
vt -2.849070 4.052273
vt -2.849015 4.076774
vt -2.822960 4.076716
vt -2.823015 4.052215
vt -2.822458 4.301643
vt -2.823068 4.028476
vt -2.046672 4.470283
vt -2.848513 4.301702
vt -2.084061 4.443200
vt -2.055950 4.443200
vt -2.848459 4.326203
vt -2.110495 4.443200
vt -2.822404 4.326145
vt -2.138605 4.443200
vt -2.077563 4.129591
vt -2.077559 4.098647
vt -2.141413 4.129581
vt -2.110469 4.129585
vt -2.110495 4.152160
vt -2.138606 4.152160
vt -2.165040 4.152160
vt -2.084061 4.152160
vt -2.336329 4.373299
vt -2.172295 4.464278
vt -2.335772 4.622728
vt -2.311046 4.027334
vt -2.286644 4.324949
vt -2.336384 4.348798
vt -2.335827 4.598227
vt -2.173825 4.475740
vt -2.310274 4.373241
vt -2.287201 4.075520
vt -2.175505 4.081017
vt -2.078639 4.104641
vt -2.048695 4.134589
vt -2.110483 4.104639
vt -2.065677 4.080549
vt -2.139806 4.045012
vt -2.110465 4.098642
vt -2.046620 4.129595
vt -2.110495 4.125725
vt -2.138606 4.125725
vt -2.821794 4.599311
vt -2.872808 4.052326
vt -2.077615 4.470278
vt -2.847849 4.599370
vt -2.848406 4.349941
vt -2.822351 4.349883
vt -2.872251 4.301754
vt -2.822296 4.374384
vt -2.848351 4.374442
vt -2.872753 4.076827
vt -2.821739 4.623813
vt -2.309772 4.598168
vt -2.286699 4.300447
vt -2.165040 4.443200
vt -2.055950 4.152160
vt -2.174319 4.129576
vt -2.174370 4.470263
vt -2.337101 4.027392
vt -2.578756 4.623271
vt -2.849123 4.028534
vt -2.872197 4.326256
vt -2.310329 4.348740
vt -2.287256 4.051019
vn 1.000000 0.000000 0.000000
vn 1.000000 0.000000 0.000000
vn 1.000000 0.000000 0.000000
vn 1.000000 0.000000 0.000000
vn 0.000000 1.000000 -0.000000
vn 0.000000 1.000000 -0.000000
vn 0.000000 1.000000 -0.000000
vn 0.000000 1.000000 -0.000000
vn -0.000000 1.000000 -0.000000
vn -0.000000 1.000000 -0.000000
vn -0.000000 1.000000 -0.000000
vn -0.000000 1.000000 -0.000000
vn 0.000000 1.000000 -0.000000
vn 0.000000 1.000000 -0.000000
vn 0.000000 1.000000 -0.000000
vn 0.000000 1.000000 -0.000000
vn -0.000000 -1.000000 0.000000
vn -0.000000 -1.000000 0.000000
vn -0.000000 -1.000000 0.000000
vn -0.000000 -1.000000 0.000000
vn 1.000000 -0.000000 -0.000000
vn 1.000000 -0.000000 -0.000000
vn 1.000000 -0.000000 -0.000000
vn 1.000000 -0.000000 -0.000000
vn -0.000000 -1.000000 0.000000
vn -0.000000 -1.000000 0.000000
vn -0.000000 -1.000000 0.000000
vn -0.000000 -1.000000 0.000000
vn 1.000000 0.000000 0.000000
vn 1.000000 0.000000 0.000000
vn 1.000000 0.000000 0.000000
vn 1.000000 0.000000 0.000000
vn 0.000000 1.000000 -0.000000
vn 0.000000 1.000000 -0.000000
vn 0.000000 1.000000 -0.000000
vn 0.000000 1.000000 -0.000000
vn -0.000000 -1.000000 0.000000
vn -0.000000 -1.000000 0.000000
vn -0.000000 -1.000000 0.000000
vn -0.000000 -1.000000 0.000000
vn 0.000000 1.000000 -0.000000
vn 0.000000 1.000000 -0.000000
vn 0.000000 1.000000 -0.000000
vn 0.000000 1.000000 -0.000000
vn -1.000000 0.000000 -0.000000
vn -1.000000 0.000000 -0.000000
vn -1.000000 0.000000 -0.000000
vn -1.000000 0.000000 -0.000000
vn -0.000000 -0.000000 -1.000000
vn -0.000000 -0.000000 -1.000000
vn -0.000000 -0.000000 -1.000000
vn -0.000000 -0.000000 -1.000000
vn 0.000000 -0.000000 -1.000000
vn 0.000000 -0.000000 -1.000000
vn 0.000000 -0.000000 -1.000000
vn 0.000000 -0.000000 -1.000000
vn -0.000000 0.000000 1.000000
vn -0.000000 0.000000 1.000000
vn -0.000000 0.000000 1.000000
vn -0.000000 0.000000 1.000000
vn 1.000000 0.000000 0.000000
vn 1.000000 0.000000 0.000000
vn 1.000000 0.000000 0.000000
vn 1.000000 0.000000 0.000000
vn -0.000000 -1.000000 0.000000
vn -0.000000 -1.000000 0.000000
vn -0.000000 -1.000000 0.000000
vn -0.000000 -1.000000 0.000000
vn -0.000000 -1.000000 0.000000
vn -0.000000 -1.000000 0.000000
vn -0.000000 -1.000000 0.000000
vn -0.000000 -1.000000 0.000000
vn -1.000000 0.000000 -0.000000
vn -1.000000 0.000000 -0.000000
vn -1.000000 0.000000 -0.000000
vn -1.000000 0.000000 -0.000000
vn 0.000000 -0.000000 -1.000000
vn 0.000000 -0.000000 -1.000000
vn 0.000000 -0.000000 -1.000000
vn 0.000000 -0.000000 -1.000000
vn 1.000000 0.000000 0.000000
vn 1.000000 0.000000 0.000000
vn 1.000000 0.000000 0.000000
vn 1.000000 0.000000 0.000000
vn -0.000000 0.000000 1.000000
vn -0.000000 0.000000 1.000000
vn -0.000000 0.000000 1.000000
vn -0.000000 0.000000 1.000000
vn 0.000000 0.000000 1.000000
vn 0.000000 0.000000 1.000000
vn 0.000000 0.000000 1.000000
vn 0.000000 0.000000 1.000000
vn -0.000000 -0.000000 -1.000000
vn -0.000000 -0.000000 -1.000000
vn -0.000000 -0.000000 -1.000000
vn -0.000000 -0.000000 -1.000000
vn 0.000000 0.000000 1.000000
vn 0.000000 0.000000 1.000000
vn 0.000000 0.000000 1.000000
vn 0.000000 0.000000 1.000000
vn -0.000000 -1.000000 0.000000
vn -0.000000 -1.000000 0.000000
vn -0.000000 -1.000000 0.000000
vn -0.000000 -1.000000 0.000000
vn 0.000000 1.000000 -0.000000
vn 0.000000 1.000000 -0.000000
vn 0.000000 1.000000 -0.000000
vn 0.000000 1.000000 -0.000000
vn -1.000000 0.000000 -0.000000
vn -1.000000 0.000000 -0.000000
vn -1.000000 0.000000 -0.000000
vn -1.000000 0.000000 -0.000000
vn 0.000000 1.000000 -0.000000
vn 0.000000 1.000000 -0.000000
vn 0.000000 1.000000 -0.000000
vn 0.000000 1.000000 -0.000000
vn 0.000000 1.000000 -0.000000
vn 0.000000 1.000000 -0.000000
vn 0.000000 1.000000 -0.000000
vn 0.000000 1.000000 -0.000000
vn 0.000000 1.000000 -0.000000
vn 0.000000 1.000000 -0.000000
vn 0.000000 1.000000 -0.000000
vn 0.000000 1.000000 -0.000000
vn -0.000000 -1.000000 0.000000
vn -0.000000 -1.000000 0.000000
vn -0.000000 -1.000000 0.000000
vn -0.000000 -1.000000 0.000000
vn -1.000000 -0.000000 -0.000000
vn -1.000000 -0.000000 -0.000000
vn -1.000000 -0.000000 -0.000000
vn -1.000000 -0.000000 -0.000000
vn -0.000000 -1.000000 0.000000
vn -0.000000 -1.000000 0.000000
vn -0.000000 -1.000000 0.000000
vn -0.000000 -1.000000 0.000000
vn -1.000000 0.000000 -0.000000
vn -1.000000 0.000000 -0.000000
vn -1.000000 0.000000 -0.000000
vn -1.000000 0.000000 -0.000000
vn -0.000000 1.000000 -0.000000
vn -0.000000 1.000000 -0.000000
vn -0.000000 1.000000 -0.000000
vn -0.000000 1.000000 -0.000000
vn 0.000000 -1.000000 0.000000
vn 0.000000 -1.000000 0.000000
vn 0.000000 -1.000000 0.000000
vn 0.000000 -1.000000 0.000000
vn 0.000000 1.000000 -0.000000
vn 0.000000 1.000000 -0.000000
vn 0.000000 1.000000 -0.000000
vn 0.000000 1.000000 -0.000000
vn 1.000000 0.000000 0.000000
vn 1.000000 0.000000 0.000000
vn 1.000000 0.000000 0.000000
vn 1.000000 0.000000 0.000000
vn 0.000000 -0.000000 -1.000000
vn 0.000000 -0.000000 -1.000000
vn 0.000000 -0.000000 -1.000000
vn 0.000000 -0.000000 -1.000000
vn 0.000000 -0.000000 -1.000000
vn 0.000000 -0.000000 -1.000000
vn 0.000000 -0.000000 -1.000000
vn 0.000000 -0.000000 -1.000000
vn -0.000000 0.000000 1.000000
vn -0.000000 0.000000 1.000000
vn -0.000000 0.000000 1.000000
vn -0.000000 0.000000 1.000000
vn -1.000000 0.000000 -0.000000
vn -1.000000 0.000000 -0.000000
vn -1.000000 0.000000 -0.000000
vn -1.000000 0.000000 -0.000000
vn -0.000000 -1.000000 0.000000
vn -0.000000 -1.000000 0.000000
vn -0.000000 -1.000000 0.000000
vn -0.000000 -1.000000 0.000000
vn -0.000000 -1.000000 0.000000
vn -0.000000 -1.000000 0.000000
vn -0.000000 -1.000000 0.000000
vn -0.000000 -1.000000 0.000000
vn 1.000000 0.000000 0.000000
vn 1.000000 0.000000 0.000000
vn 1.000000 0.000000 0.000000
vn 1.000000 0.000000 0.000000
vn 0.000000 -0.000000 -1.000000
vn 0.000000 -0.000000 -1.000000
vn 0.000000 -0.000000 -1.000000
vn 0.000000 -0.000000 -1.000000
vn -1.000000 0.000000 -0.000000
vn -1.000000 0.000000 -0.000000
vn -1.000000 0.000000 -0.000000
vn -1.000000 0.000000 -0.000000
vn -0.000000 0.000000 1.000000
vn -0.000000 0.000000 1.000000
vn -0.000000 0.000000 1.000000
vn -0.000000 0.000000 1.000000
vn -0.000000 0.000000 1.000000
vn -0.000000 0.000000 1.000000
vn -0.000000 0.000000 1.000000
vn -0.000000 0.000000 1.000000
vn 0.000000 -0.000000 -1.000000
vn 0.000000 -0.000000 -1.000000
vn 0.000000 -0.000000 -1.000000
vn 0.000000 -0.000000 -1.000000
vn -0.000000 0.000000 1.000000
vn -0.000000 0.000000 1.000000
vn -0.000000 0.000000 1.000000
vn -0.000000 0.000000 1.000000
vn -0.000000 -1.000000 0.000000
vn -0.000000 -1.000000 0.000000
vn -0.000000 -1.000000 0.000000
vn -0.000000 -1.000000 0.000000
vn -0.000000 1.000000 -0.000000
vn -0.000000 1.000000 -0.000000
vn -0.000000 1.000000 -0.000000
vn -0.000000 1.000000 -0.000000
s off
g Escritorio_DONE Muebles_HabitaciónPlayer
usemtl initialShadingGroup
f 4/66/1 3/2/2 2/3/3 1/99/4
f 26/5/5 25/6/6 9/7/7 10/8/8
f 9/7/9 2/3/10 3/2/11 10/8/12
f 30/9/13 26/5/14 10/8/15 14/10/16
f 28/11/17 12/63/18 11/59/19 27/95/20
f 3/2/21 4/66/22 8/89/23 7/16/24
f 8/65/25 4/88/26 12/63/27 16/57/28
f 8/89/29 5/61/30 6/19/31 7/16/32
f 13/20/33 14/10/34 7/16/35 6/19/36
f 31/21/37 15/62/38 16/57/39 32/23/40
f 14/10/41 10/8/42 3/2/43 7/16/44
f 11/13/45 12/64/46 22/67/47 21/25/48
f 29/26/49 13/20/50 15/62/51 31/21/52
f 5/98/53 15/62/54 13/20/55 6/19/56
f 1/60/57 2/3/58 9/7/59 11/94/60
f 4/1/61 1/4/62 17/27/63 18/71/64
f 19/29/65 20/70/66 24/68/67 23/32/68
f 17/27/69 21/25/70 22/72/71 18/28/72
f 16/17/73 15/22/74 23/32/75 24/69/76
f 15/22/77 5/18/78 19/29/79 23/32/80
f 5/18/81 8/15/82 20/30/83 19/29/84
f 1/4/85 11/13/86 21/25/87 17/27/88
f 8/15/89 16/58/90 24/31/91 20/30/92
f 12/12/93 4/1/94 18/71/95 22/24/96
f 27/14/97 11/94/98 9/7/99 25/6/100
f 12/63/101 28/11/102 32/23/103 16/57/104
f 14/10/105 13/20/106 29/26/107 30/9/108
f 36/86/109 33/78/110 34/35/111 35/36/112
f 26/5/113 42/37/114 41/38/115 25/6/116
f 41/38/117 42/37/118 35/36/119 34/35/120
f 30/9/121 46/39/122 42/37/123 26/5/124
f 28/11/125 27/95/126 43/87/127 44/77/128
f 35/36/129 39/42/130 40/83/131 36/86/132
f 40/85/133 48/84/134 44/77/135 36/80/136
f 40/83/137 39/42/138 38/45/139 37/97/140
f 45/47/141 38/45/142 39/42/143 46/39/144
f 31/21/145 32/23/146 48/84/147 47/82/148
f 46/39/149 39/42/150 35/36/151 42/37/152
f 43/79/153 53/49/154 54/74/155 44/41/156
f 29/26/157 31/21/158 47/82/159 45/47/160
f 37/81/161 38/45/162 45/47/163 47/82/164
f 33/96/165 43/40/166 41/38/167 34/35/168
f 36/33/169 50/51/170 49/52/171 33/34/172
f 51/53/173 55/54/174 56/76/175 52/75/176
f 49/52/177 50/73/178 54/50/179 53/49/180
f 48/90/181 56/55/182 55/54/183 47/48/184
f 47/48/185 55/54/186 51/53/187 37/46/188
f 37/46/189 51/53/190 52/56/191 40/43/192
f 33/34/193 49/52/194 53/49/195 43/79/196
f 40/43/197 52/56/198 56/91/199 48/44/200
f 44/93/201 54/92/202 50/51/203 36/33/204
f 27/14/205 25/6/206 41/38/207 43/40/208
f 44/77/209 48/84/210 32/23/211 28/11/212
f 46/39/213 30/9/214 29/26/215 45/47/216
