# This file uses centimeters as units for non-parametric coordinates.

mtllib zapatero.mtl
g default
v -334.928666 132.284095 -725.868684
v -334.928666 0.488133 -725.868684
v -334.928666 132.284095 -645.505766
v -334.928666 0.488133 -645.505766
v -362.264133 132.284095 -725.868684
v -362.264133 0.488133 -725.868684
v -362.264133 132.284095 -645.505766
v -362.264133 0.488133 -645.505766
v -334.928666 130.346402 -722.594495
v -334.928666 130.346402 -648.779955
v -334.928666 2.425827 -648.779955
v -334.928666 2.425827 -722.594495
v -335.047781 44.377555 -648.779955
v -335.047781 43.094253 -648.779955
v -335.012925 43.094253 -645.753423
v -335.012925 44.377555 -645.753423
v -335.012925 44.377555 -725.620981
v -335.012925 43.094253 -725.620981
v -335.047781 43.094253 -722.594495
v -335.047781 44.377555 -722.594495
v -335.047781 88.394675 -722.594495
v -335.047781 89.677975 -722.594495
v -335.012925 89.677975 -725.620981
v -335.012925 88.394675 -725.620981
v -334.928666 43.094253 -725.868684
v -334.928666 44.377555 -725.868684
v -334.928666 88.394675 -725.868684
v -334.928666 89.677975 -725.868684
v -362.264133 89.677975 -645.505766
v -362.264133 88.394675 -645.505766
v -362.264133 44.377555 -645.505766
v -362.264133 43.094253 -645.505766
v -334.928666 89.677975 -645.505766
v -334.928666 88.394675 -645.505766
v -334.928666 44.377555 -645.505766
v -334.928666 43.094253 -645.505766
v -362.264133 43.094253 -725.868684
v -362.264133 44.377555 -725.868684
v -362.264133 88.394675 -725.868684
v -362.264133 89.677975 -725.868684
v -334.928666 89.677975 -722.594495
v -334.928666 88.394675 -722.594495
v -334.928666 44.377555 -722.594495
v -334.928666 43.094253 -722.594495
v -334.928666 43.094253 -648.779955
v -334.928666 44.377555 -648.779955
v -334.928666 88.394675 -648.779955
v -334.928666 89.677975 -648.779955
v -335.047781 88.394675 -648.779955
v -335.047781 89.677975 -648.779955
v -335.012925 89.677975 -645.753423
v -335.012925 88.394675 -645.753423
v -362.179880 43.094253 -725.620981
v -362.179880 44.377555 -725.620981
v -362.179880 88.394675 -725.620981
v -362.179880 89.677975 -725.620981
v -362.179880 44.377555 -645.753423
v -362.179880 43.094253 -645.753423
v -362.179880 89.677975 -645.753423
v -362.179880 88.394675 -645.753423
v -333.946058 130.346402 -722.594495
v -333.946058 130.346402 -648.779955
v -333.946056 2.425827 -648.779955
v -333.946056 2.425827 -722.594495
v -333.946056 43.094253 -648.779955
v -333.946056 43.094253 -722.594495
v -333.946058 44.377555 -722.594495
v -333.946058 44.377555 -648.779955
v -333.946058 89.677975 -722.594495
v -333.946058 89.677975 -648.779955
v -333.946058 88.394675 -648.779955
v -333.946058 88.394675 -722.594495
vt -0.382296 4.592098
vt -0.383475 4.746895
vt -0.843874 2.923622
vt -0.839405 4.594607
vt -0.393433 3.671724
vt 0.367944 4.597174
vt -0.850227 3.826751
vt -1.590618 4.744137
vt -0.828919 4.075548
vt -0.831327 3.837694
vt -0.827728 3.841597
vt -0.825662 4.071346
vt -1.349867 4.745665
vt -0.392423 3.431646
vt -0.408789 4.071254
vt -0.412392 4.067386
vt -0.385273 4.343153
vt -0.142649 4.748316
vt -0.820805 4.583671
vt -0.401227 4.581205
vt -0.847391 4.076054
vt -0.412286 3.836013
vt -1.091087 4.747297
vt -0.391077 3.174962
vt 0.116133 4.749995
vt -0.846909 3.421585
vt -0.140226 4.594311
vt -0.403742 4.342982
vt -0.403802 4.335714
vt -0.132976 4.594360
vt -0.131573 4.593893
vt -0.403803 4.335039
vt -0.408711 4.079807
vt -0.390229 4.079240
vt -1.338837 4.591269
vt -0.828873 4.084174
vt -0.824082 4.339562
vt -0.842565 4.340123
vt 0.127195 4.595598
vt -1.080072 4.592927
vt -0.824020 4.348123
vt -0.845293 3.164424
vt -0.817581 4.579499
vt -0.404829 4.577309
vt -0.403745 4.343656
vt -0.824082 4.340233
vt -0.392435 3.167232
vt 0.125792 4.596065
vt -0.408782 4.071924
vt -0.841202 4.340557
vt -0.843940 3.172163
vt -0.824024 4.347452
vt -1.340239 4.591736
vt -0.828871 4.083499
vt -0.408715 4.079137
vt -0.391593 4.078806
vt -0.393787 3.423927
vt -0.843896 3.164908
vt -1.081473 4.593393
vt -0.828926 4.076224
vt -0.845511 3.422068
vt -1.347491 4.591690
vt 0.124787 4.749576
vt -0.133993 4.747894
vt -0.845560 3.429333
vt -0.415500 3.840181
vt -0.825231 4.088023
vt -0.411939 4.083985
vt -0.407446 4.331192
vt -0.820848 4.335383
vt -0.820419 4.351994
vt -0.406997 4.347859
vt -0.393821 3.431165
vt 0.126183 4.750061
vt -0.846965 3.429805
vt -1.348464 4.745198
vt -0.132596 4.748379
vt -0.392475 3.174479
vt -1.082432 4.746874
vt -1.089684 4.746830
vt -1.341213 4.745244
vt -0.141246 4.747849
vt 0.117535 4.749528
vt -1.339817 4.745729
vt -1.081035 4.747359
vt -0.392384 3.423458
vt -0.845343 3.172633
vt -0.391032 3.166763
vt -0.389671 2.926063
vt -0.840200 4.748735
vt -1.348887 4.591206
vt -0.846025 4.076508
vt -0.841122 4.347875
vt -1.088723 4.593345
vt -0.846025 4.084061
vt -0.391682 4.071493
vt 0.118541 4.596017
vt -0.842465 4.348374
vt -0.385312 4.334626
vt -0.386648 4.335149
vt 0.117144 4.595532
vt -0.847364 4.084586
vt -1.090120 4.592860
vt -0.390343 4.070994
vt -0.141622 4.593824
vt -0.386641 4.342699
vt -1.589637 4.589675
vt -0.848735 3.671228
vt 0.366933 4.751636
vt -0.393725 3.825126
vn 0.000000 1.000000 0.000000
vn 0.000000 1.000000 0.000000
vn 0.000000 1.000000 0.000000
vn 0.000000 1.000000 0.000000
vn 0.000000 -1.000000 0.000000
vn 0.000000 -1.000000 0.000000
vn 0.000000 -1.000000 0.000000
vn 0.000000 -1.000000 0.000000
vn 0.000000 0.000000 1.000000
vn 0.000000 0.000000 1.000000
vn 0.000000 0.000000 1.000000
vn 0.000000 0.000000 1.000000
vn -1.000000 0.000000 0.000000
vn -1.000000 0.000000 0.000000
vn -1.000000 0.000000 0.000000
vn -1.000000 0.000000 0.000000
vn 0.000000 1.000000 0.000000
vn 0.000000 1.000000 0.000000
vn 0.000000 1.000000 0.000000
vn 0.000000 1.000000 0.000000
vn 0.000000 0.000000 -1.000000
vn 0.000000 0.000000 -1.000000
vn 0.000000 0.000000 -1.000000
vn 0.000000 0.000000 -1.000000
vn 1.000000 0.000000 0.000000
vn 1.000000 0.000000 0.000000
vn 1.000000 0.000000 0.000000
vn 1.000000 0.000000 0.000000
vn 1.000000 0.000000 0.000000
vn 1.000000 0.000000 0.000000
vn 1.000000 0.000000 0.000000
vn 1.000000 0.000000 0.000000
vn 1.000000 0.000000 0.000000
vn 1.000000 0.000000 0.000000
vn 1.000000 0.000000 0.000000
vn 1.000000 0.000000 0.000000
vn 0.000000 0.000000 1.000000
vn 0.000000 0.000000 1.000000
vn 0.000000 0.000000 1.000000
vn 0.000000 0.000000 1.000000
vn -1.000000 0.000000 0.000000
vn -1.000000 0.000000 0.000000
vn -1.000000 0.000000 0.000000
vn -1.000000 0.000000 0.000000
vn 0.999934 0.000000 0.011500
vn 0.999934 0.000000 0.011500
vn 0.999934 0.000000 0.011500
vn 0.999934 0.000000 0.011500
vn 1.000000 0.000000 0.000000
vn 1.000000 0.000000 0.000000
vn 1.000000 0.000000 0.000000
vn 1.000000 0.000000 0.000000
vn 1.000000 0.000000 0.000000
vn 1.000000 0.000000 0.000000
vn 1.000000 0.000000 0.000000
vn 1.000000 0.000000 0.000000
vn 0.000000 0.000000 1.000000
vn 0.000000 0.000000 1.000000
vn 0.000000 0.000000 1.000000
vn 0.000000 0.000000 1.000000
vn 1.000000 0.000000 0.000000
vn 1.000000 0.000000 0.000000
vn 1.000000 0.000000 0.000000
vn 1.000000 0.000000 0.000000
vn 1.000000 0.000000 0.000000
vn 1.000000 0.000000 0.000000
vn 1.000000 0.000000 0.000000
vn 1.000000 0.000000 0.000000
vn 0.000000 0.000000 -1.000000
vn 0.000000 0.000000 -1.000000
vn 0.000000 0.000000 -1.000000
vn 0.000000 0.000000 -1.000000
vn 0.000000 0.000000 1.000000
vn 0.000000 0.000000 1.000000
vn 0.000000 0.000000 1.000000
vn 0.000000 0.000000 1.000000
vn -1.000000 0.000000 0.000000
vn -1.000000 0.000000 0.000000
vn -1.000000 0.000000 0.000000
vn -1.000000 0.000000 0.000000
vn 0.000000 1.000000 0.000000
vn 0.000000 1.000000 0.000000
vn 0.000000 1.000000 0.000000
vn 0.000000 1.000000 0.000000
vn 1.000000 0.000000 0.000000
vn 1.000000 0.000000 0.000000
vn 1.000000 0.000000 0.000000
vn 1.000000 0.000000 0.000000
vn 0.000000 1.000000 0.000000
vn 0.000000 1.000000 0.000000
vn 0.000000 1.000000 0.000000
vn 0.000000 1.000000 0.000000
vn 0.000000 -1.000000 0.000000
vn 0.000000 -1.000000 0.000000
vn 0.000000 -1.000000 0.000000
vn 0.000000 -1.000000 0.000000
vn 0.000000 1.000000 0.000000
vn 0.000000 1.000000 0.000000
vn 0.000000 1.000000 0.000000
vn 0.000000 1.000000 0.000000
vn 0.000000 1.000000 0.000000
vn 0.000000 1.000000 0.000000
vn 0.000000 1.000000 0.000000
vn 0.000000 1.000000 0.000000
vn 0.000000 -1.000000 0.000000
vn 0.000000 -1.000000 0.000000
vn 0.000000 -1.000000 0.000000
vn 0.000000 -1.000000 0.000000
vn 0.000000 -1.000000 0.000000
vn 0.000000 -1.000000 0.000000
vn 0.000000 -1.000000 0.000000
vn 0.000000 -1.000000 0.000000
vn 0.000000 -1.000000 0.000000
vn 0.000000 -1.000000 0.000000
vn 0.000000 -1.000000 0.000000
vn 0.000000 -1.000000 0.000000
vn 0.000000 -1.000000 0.000000
vn 0.000000 -1.000000 0.000000
vn 0.000000 -1.000000 0.000000
vn 0.000000 -1.000000 0.000000
vn 0.000000 1.000000 0.000000
vn 0.000000 1.000000 0.000000
vn 0.000000 1.000000 0.000000
vn 0.000000 1.000000 0.000000
vn 0.000000 -1.000000 0.000000
vn 0.000000 -1.000000 0.000000
vn 0.000000 -1.000000 0.000000
vn 0.000000 -1.000000 0.000000
vn 0.000000 1.000000 0.000000
vn 0.000000 1.000000 0.000000
vn 0.000000 1.000000 0.000000
vn 0.000000 1.000000 0.000000
vn 0.000000 -1.000000 0.000000
vn 0.000000 -1.000000 0.000000
vn 0.000000 -1.000000 0.000000
vn 0.000000 -1.000000 0.000000
vn 0.000000 0.000000 -1.000000
vn 0.000000 0.000000 -1.000000
vn 0.000000 0.000000 -1.000000
vn 0.000000 0.000000 -1.000000
vn 0.999934 0.000000 0.011500
vn 0.999934 0.000000 0.011500
vn 0.999934 0.000000 0.011500
vn 0.999934 0.000000 0.011500
vn 0.999934 0.000000 -0.011500
vn 0.999934 0.000000 -0.011500
vn 0.999934 0.000000 -0.011500
vn 0.999934 0.000000 -0.011500
vn 0.999934 0.000000 -0.011500
vn 0.999934 0.000000 -0.011500
vn 0.999934 0.000000 -0.011500
vn 0.999934 0.000000 -0.011500
vn 0.000000 0.000000 -1.000000
vn 0.000000 0.000000 -1.000000
vn 0.000000 0.000000 -1.000000
vn 0.000000 0.000000 -1.000000
vn 0.000000 0.000000 -1.000000
vn 0.000000 0.000000 -1.000000
vn 0.000000 0.000000 -1.000000
vn 0.000000 0.000000 -1.000000
vn 0.000000 0.000000 1.000000
vn 0.000000 0.000000 1.000000
vn 0.000000 0.000000 1.000000
vn 0.000000 0.000000 1.000000
vn 0.000000 0.000000 1.000000
vn 0.000000 0.000000 1.000000
vn 0.000000 0.000000 1.000000
vn 0.000000 0.000000 1.000000
vn -1.000000 0.000000 0.000000
vn -1.000000 0.000000 0.000000
vn -1.000000 0.000000 0.000000
vn -1.000000 0.000000 0.000000
vn -1.000000 0.000000 0.000000
vn -1.000000 0.000000 0.000000
vn -1.000000 0.000000 0.000000
vn -1.000000 0.000000 0.000000
vn 1.000000 0.000000 0.000000
vn 1.000000 0.000000 0.000000
vn 1.000000 0.000000 0.000000
vn 1.000000 0.000000 0.000000
vn 1.000000 0.000000 0.000000
vn 1.000000 0.000000 0.000000
vn 1.000000 0.000000 0.000000
vn 1.000000 0.000000 0.000000
vn 0.000000 -1.000000 0.000000
vn 0.000000 -1.000000 0.000000
vn 0.000000 -1.000000 0.000000
vn 0.000000 -1.000000 0.000000
vn -0.000100 -1.000000 0.000000
vn -0.000100 -1.000000 0.000000
vn -0.000100 -1.000000 0.000000
vn -0.000100 -1.000000 0.000000
vn 0.000000 1.000000 0.000000
vn 0.000000 1.000000 0.000000
vn 0.000000 1.000000 0.000000
vn 0.000000 1.000000 0.000000
vn 0.000000 1.000000 0.000000
vn 0.000000 1.000000 0.000000
vn 0.000000 1.000000 0.000000
vn 0.000000 1.000000 0.000000
vn 0.000000 -1.000000 0.000000
vn 0.000000 -1.000000 0.000000
vn 0.000000 -1.000000 0.000000
vn 0.000000 -1.000000 0.000000
vn 0.000000 1.000000 0.000000
vn 0.000000 1.000000 0.000000
vn 0.000000 1.000000 0.000000
vn 0.000000 1.000000 0.000000
vn 0.000000 1.000000 0.000000
vn 0.000000 1.000000 0.000000
vn 0.000000 1.000000 0.000000
vn 0.000000 1.000000 0.000000
vn 0.000000 1.000000 0.000000
vn 0.000000 1.000000 0.000000
vn 0.000000 1.000000 0.000000
vn 0.000000 1.000000 0.000000
vn 0.000000 -1.000000 0.000000
vn 0.000000 -1.000000 0.000000
vn 0.000000 -1.000000 0.000000
vn 0.000000 -1.000000 0.000000
vn 0.000000 1.000000 0.000000
vn 0.000000 1.000000 0.000000
vn 0.000000 1.000000 0.000000
vn 0.000000 1.000000 0.000000
vn 0.000000 -1.000000 0.000000
vn 0.000000 -1.000000 0.000000
vn 0.000000 -1.000000 0.000000
vn 0.000000 -1.000000 0.000000
vn 0.000000 1.000000 0.000000
vn 0.000000 1.000000 0.000000
vn 0.000000 1.000000 0.000000
vn 0.000000 1.000000 0.000000
vn 1.000000 0.000000 0.000000
vn 1.000000 0.000000 0.000000
vn 1.000000 0.000000 0.000000
vn 1.000000 0.000000 0.000000
vn 1.000000 0.000000 0.000000
vn 1.000000 0.000000 0.000000
vn 1.000000 0.000000 0.000000
vn 1.000000 0.000000 0.000000
vn 1.000000 0.000000 0.000000
vn 1.000000 0.000000 0.000000
vn 1.000000 0.000000 0.000000
vn 1.000000 0.000000 0.000000
vn 0.000000 0.000000 -1.000000
vn 0.000000 0.000000 -1.000000
vn 0.000000 0.000000 -1.000000
vn 0.000000 0.000000 -1.000000
vn 0.000000 -1.000000 0.000000
vn 0.000000 -1.000000 0.000000
vn 0.000000 -1.000000 0.000000
vn 0.000000 -1.000000 0.000000
vn 0.000000 -1.000000 0.000000
vn 0.000000 -1.000000 0.000000
vn 0.000000 -1.000000 0.000000
vn 0.000000 -1.000000 0.000000
vn 0.000000 0.000000 -1.000000
vn 0.000000 0.000000 -1.000000
vn 0.000000 0.000000 -1.000000
vn 0.000000 0.000000 -1.000000
vn 0.000000 0.000000 1.000000
vn 0.000000 0.000000 1.000000
vn 0.000000 0.000000 1.000000
vn 0.000000 0.000000 1.000000
vn 0.000000 -1.000000 0.000000
vn 0.000000 -1.000000 0.000000
vn 0.000000 -1.000000 0.000000
vn 0.000000 -1.000000 0.000000
vn 0.000000 0.000000 -1.000000
vn 0.000000 0.000000 -1.000000
vn 0.000000 0.000000 -1.000000
vn 0.000000 0.000000 -1.000000
vn 0.000000 0.000000 1.000000
vn 0.000000 0.000000 1.000000
vn 0.000000 0.000000 1.000000
vn 0.000000 0.000000 1.000000
vn 0.000000 1.000000 0.000000
vn 0.000000 1.000000 0.000000
vn 0.000000 1.000000 0.000000
vn 0.000000 1.000000 0.000000
s off
g Zapatero_DONE Muebles_HabitaciónPlayer
usemtl initialShadingGroup
f 1/1/1 5/2/2 7/90/3 3/4/4
f 6/5/5 2/110/6 4/7/7 8/108/8
f 45/9/9 11/10/10 63/11/11 65/12/12
f 8/108/13 32/75/14 37/14/15 6/5/16
f 44/15/17 45/9/18 65/12/19 66/16/20
f 5/2/21 1/1/22 28/105/23 40/18/24
f 1/1/25 3/4/26 10/19/27 9/20/28
f 36/21/29 4/7/30 11/10/31 45/9/32
f 4/7/33 2/110/34 12/22/35 11/10/36
f 36/91/37 32/13/38 8/8/39 4/107/40
f 30/87/41 39/24/42 38/86/43 31/26/44
f 23/106/45 22/28/46 21/29/47 24/100/48
f 27/99/49 42/32/50 43/33/51 26/34/52
f 35/102/53 46/36/54 47/37/55 34/38/56
f 31/84/57 35/35/58 34/103/59 30/23/60
f 2/110/61 25/104/62 44/15/63 12/22/64
f 3/4/65 33/98/66 48/41/67 10/19/68
f 37/74/69 25/39/70 2/6/71 6/109/72
f 3/4/73 7/90/74 29/85/75 33/40/76
f 29/42/77 7/3/78 5/89/79 40/88/80
f 9/20/81 10/19/82 62/43/83 61/44/84
f 28/17/85 1/1/86 9/20/87 41/45/88
f 47/37/89 42/32/90 21/29/91 49/46/92
f 40/18/93 28/105/94 23/27/95 56/82/96
f 44/15/97 25/104/98 18/96/99 19/49/100
f 30/23/101 34/103/102 52/94/103 60/80/104
f 41/45/105 48/41/106 50/52/107 22/28/108
f 46/36/109 35/102/110 16/95/111 13/54/112
f 43/33/113 46/36/114 13/54/115 20/55/116
f 38/25/117 26/101/118 17/97/119 54/83/120
f 42/32/121 27/99/122 24/100/123 21/29/124
f 33/40/125 29/85/126 59/79/127 51/59/128
f 45/9/129 44/15/130 19/49/131 14/60/132
f 35/35/133 31/84/134 57/81/135 16/53/136
f 26/101/137 38/25/138 39/77/139 27/31/140
f 19/49/141 18/96/142 17/56/143 20/55/144
f 15/92/145 14/60/146 13/54/147 16/95/148
f 50/52/149 51/93/150 52/50/151 49/46/152
f 18/48/153 53/63/154 54/83/155 17/97/156
f 56/82/157 23/27/158 24/30/159 55/64/160
f 58/76/161 15/62/162 16/53/163 57/81/164
f 51/59/165 59/79/166 60/80/167 52/94/168
f 59/58/169 56/47/170 55/78/171 60/51/172
f 53/73/173 58/65/174 57/61/175 54/57/176
f 14/60/177 19/49/178 20/55/179 13/54/180
f 22/28/181 50/52/182 49/46/183 21/29/184
f 48/41/185 33/98/186 51/93/187 50/52/188
f 29/42/189 40/88/190 56/47/191 59/58/192
f 27/31/193 39/77/194 55/64/195 24/30/196
f 39/24/197 30/87/198 60/51/199 55/78/200
f 26/34/201 43/33/202 20/55/203 17/56/204
f 34/38/205 47/37/206 49/46/207 52/50/208
f 37/14/209 32/75/210 58/65/211 53/73/212
f 32/13/213 36/91/214 15/62/215 58/76/216
f 28/17/217 41/45/218 22/28/219 23/106/220
f 25/39/221 37/74/222 53/63/223 18/48/224
f 31/26/225 38/86/226 54/57/227 57/61/228
f 36/21/229 45/9/230 14/60/231 15/92/232
f 66/16/233 65/12/234 63/11/235 64/66/236
f 68/67/237 67/68/238 72/69/239 71/70/240
f 61/44/241 62/43/242 70/71/243 69/72/244
f 41/45/245 9/20/246 61/44/247 69/72/248
f 11/10/249 12/22/250 64/66/251 63/11/252
f 46/36/253 43/33/254 67/68/255 68/67/256
f 43/33/257 42/32/258 72/69/259 67/68/260
f 47/37/261 46/36/262 68/67/263 71/70/264
f 48/41/265 41/45/266 69/72/267 70/71/268
f 12/22/269 44/15/270 66/16/271 64/66/272
f 10/19/273 48/41/274 70/71/275 62/43/276
f 42/32/277 47/37/278 71/70/279 72/69/280
