# This file uses centimeters as units for non-parametric coordinates.

mtllib Plato.mtl
g default
v -0.000002 3.558403 -20.290567
v -0.000001 -0.091040 -18.025278
v 10.145283 3.558404 -17.572147
v 9.012638 -0.091039 -15.610351
v 17.572145 3.558408 -10.145287
v 15.610348 -0.091036 -9.012640
v 20.290569 3.558411 -0.000002
v 18.025278 -0.091033 -0.000001
v 17.572149 3.558414 10.145282
v 15.610351 -0.091030 9.012638
v 10.145286 3.558416 17.572145
v 9.012641 -0.091028 15.610348
v 0.000002 3.558416 20.290569
v 0.000002 -0.091028 18.025280
v -10.145283 3.558414 17.572149
v -9.012638 -0.091030 15.610351
v -17.572145 3.558411 10.145285
v -15.610348 -0.091033 9.012641
v -20.290569 3.558407 0.000001
v -18.025278 -0.091036 0.000002
v -17.572149 3.558404 -10.145283
v -15.610351 -0.091039 -9.012637
v -10.145286 3.558403 -17.572145
v -9.012641 -0.091040 -15.610348
v -0.000003 4.585407 -25.677998
v 12.838997 4.585410 -22.237804
v 12.838997 3.721271 -22.237803
v -0.000002 3.721269 -25.677998
v 22.237799 4.585413 -12.839002
v 22.237799 3.721275 -12.839000
v 25.677998 4.585418 -0.000003
v 25.677998 3.721279 -0.000003
v 22.237801 4.585422 12.838995
v 22.237801 3.721283 12.838997
v 12.839001 4.585424 22.237797
v 12.839001 3.721286 22.237799
v 0.000002 4.585423 25.677996
v 0.000002 3.721285 25.677998
v -12.838997 4.585422 22.237799
v -12.838997 3.721283 22.237803
v -22.237799 4.585418 12.838998
v -22.237799 3.721279 12.839000
v -25.677998 4.585413 0.000001
v -25.677998 3.721275 0.000002
v -22.237801 4.585409 -12.838999
v -22.237801 3.721271 -12.838997
v -12.839001 4.585407 -22.237801
v -12.839001 3.721269 -22.237801
v -0.000002 2.669508 -18.794010
v 9.397004 2.669510 -16.276093
v 16.276089 2.669513 -9.397007
v 18.794010 2.669516 -0.000002
v 16.276093 2.669519 9.397004
v 9.397007 2.669520 16.276089
v 0.000002 2.669520 18.794010
v -9.397004 2.669519 16.276091
v -16.276089 2.669516 9.397006
v -18.794010 2.669513 0.000001
v -16.276093 2.669510 -9.397004
v -9.397007 2.669508 -16.276089
v -0.000002 1.943000 -19.511299
v 9.755648 1.943002 -16.897282
v 16.897278 1.943005 -9.755651
v 19.511297 1.943008 -0.000002
v 16.897282 1.943011 9.755650
v 9.755651 1.943013 16.897278
v 0.000002 1.943013 19.511299
v -9.755648 1.943011 16.897282
v -16.897278 1.943008 9.755651
v -19.511297 1.943005 0.000002
v -16.897282 1.943002 -9.755648
v -9.755651 1.943000 -16.897280
vt 0.835029 0.327192
vt 0.835029 0.251809
vt 0.838943 0.327192
vt 0.839877 0.345284
vt 0.839877 0.309100
vt 0.839877 0.269901
vt 0.839877 0.233717
vt 0.842856 0.327192
vt 0.842856 0.251809
vt 0.842856 0.251809
vt 0.843266 0.311056
vt 0.843266 0.343327
vt 0.846655 0.313013
vt 0.846655 0.265988
vt 0.846655 0.265988
vt 0.846655 0.237631
vt 0.846655 0.237631
vt 0.846655 0.341370
vt 0.853121 0.358528
vt 0.853121 0.295856
vt 0.853121 0.283145
vt 0.853121 0.220473
vt 0.855078 0.355139
vt 0.855078 0.299245
vt 0.857034 0.351750
vt 0.857034 0.302633
vt 0.857034 0.276367
vt 0.857034 0.276367
vt 0.857034 0.227251
vt 0.857034 0.227251
vt 0.871213 0.363375
vt 0.871213 0.359462
vt 0.871213 0.298834
vt 0.871213 0.294921
vt 0.871213 0.291008
vt 0.871213 0.287993
vt 0.871213 0.280167
vt 0.871213 0.280167
vt 0.871213 0.215626
vt 0.871213 0.355549
vt 0.871213 0.223452
vt 0.871213 0.223452
vt 0.885392 0.276367
vt 0.885392 0.276367
vt 0.885392 0.227251
vt 0.885392 0.227251
vt 0.885392 0.351750
vt 0.885392 0.302633
vt 0.887348 0.355139
vt 0.887348 0.299245
vt 0.889305 0.358528
vt 0.889305 0.295856
vt 0.889305 0.283145
vt 0.889305 0.220473
vt 0.895771 0.341370
vt 0.895771 0.265988
vt 0.895771 0.265988
vt 0.895771 0.313013
vt 0.895771 0.237631
vt 0.895771 0.237631
vt 0.899160 0.343327
vt 0.899160 0.311056
vt 0.899570 0.327192
vt 0.899570 0.251809
vt 0.899570 0.251809
vt 0.902549 0.345284
vt 0.902549 0.309100
vt 0.902549 0.269901
vt 0.902549 0.233717
vt 0.903483 0.327192
vt 0.907397 0.327192
vt 0.907397 0.251809
vt 0.908904 0.364883
vt 0.908904 0.352319
vt 0.908904 0.339755
vt 0.908904 0.327192
vt 0.908904 0.314628
vt 0.908904 0.302064
vt 0.908904 0.289500
vt 0.908904 0.276937
vt 0.908904 0.264373
vt 0.908904 0.251809
vt 0.908904 0.239246
vt 0.908904 0.226682
vt 0.908904 0.214118
vt 0.984287 0.364883
vt 0.984287 0.352319
vt 0.984287 0.339755
vt 0.984287 0.327192
vt 0.984287 0.314628
vt 0.984287 0.302064
vt 0.984287 0.289500
vt 0.984287 0.276937
vt 0.984287 0.264373
vt 0.984287 0.251809
vt 0.984287 0.239246
vt 0.984287 0.226682
vt 0.984287 0.214118
vn 0.258819 -0.000000 -0.965926
vn 0.258819 -0.000000 -0.965926
vn 0.258819 -0.000000 -0.965926
vn 0.258819 -0.000000 -0.965926
vn 0.707107 -0.000000 -0.707107
vn 0.707107 -0.000000 -0.707107
vn 0.707107 -0.000000 -0.707107
vn 0.707107 -0.000000 -0.707107
vn 0.965926 -0.000000 -0.258819
vn 0.965926 -0.000000 -0.258819
vn 0.965926 -0.000000 -0.258819
vn 0.965926 -0.000000 -0.258819
vn 0.965926 0.000000 0.258819
vn 0.965926 0.000000 0.258819
vn 0.965926 0.000000 0.258819
vn 0.965926 0.000000 0.258819
vn 0.707107 0.000002 0.707107
vn 0.707107 0.000002 0.707107
vn 0.707107 0.000002 0.707107
vn 0.707107 0.000002 0.707107
vn 0.258819 0.000002 0.965926
vn 0.258819 0.000002 0.965926
vn 0.258819 0.000002 0.965926
vn 0.258819 0.000002 0.965926
vn -0.258819 0.000000 0.965926
vn -0.258819 0.000000 0.965926
vn -0.258819 0.000000 0.965926
vn -0.258819 0.000000 0.965926
vn -0.707107 0.000003 0.707107
vn -0.707107 0.000003 0.707107
vn -0.707107 0.000003 0.707107
vn -0.707107 0.000003 0.707107
vn -0.965926 0.000000 0.258819
vn -0.965926 0.000000 0.258819
vn -0.965926 0.000000 0.258819
vn -0.965926 0.000000 0.258819
vn -0.965926 -0.000000 -0.258819
vn -0.965926 -0.000000 -0.258819
vn -0.965926 -0.000000 -0.258819
vn -0.965926 -0.000000 -0.258819
vn 0.000000 -1.000000 0.000000
vn 0.000000 -1.000000 0.000000
vn 0.000000 -1.000000 0.000000
vn 0.000000 -1.000000 0.000000
vn 0.000000 -1.000000 0.000000
vn 0.000000 -1.000000 0.000000
vn 0.000000 -1.000000 0.000000
vn 0.000000 -1.000000 0.000000
vn 0.000000 -1.000000 0.000000
vn 0.000000 -1.000000 0.000000
vn 0.000000 -1.000000 0.000000
vn 0.000000 -1.000000 0.000000
vn -0.707107 -0.000000 -0.707107
vn -0.707107 -0.000000 -0.707107
vn -0.707107 -0.000000 -0.707107
vn -0.707107 -0.000000 -0.707107
vn -0.258819 -0.000002 -0.965926
vn -0.258819 -0.000002 -0.965926
vn -0.258819 -0.000002 -0.965926
vn -0.258819 -0.000002 -0.965926
vn 0.135571 0.851838 -0.505958
vn 0.135571 0.851838 -0.505958
vn 0.135571 0.851838 -0.505958
vn 0.135571 0.851838 -0.505958
vn -0.050113 0.981077 0.187022
vn -0.050113 0.981077 0.187022
vn -0.050113 0.981077 0.187022
vn -0.050113 0.981077 0.187022
vn 0.074039 -0.958211 -0.276316
vn 0.074039 -0.958211 -0.276316
vn 0.074039 -0.958211 -0.276316
vn 0.074039 -0.958211 -0.276316
vn -0.136910 0.981077 0.136910
vn -0.136910 0.981077 0.136910
vn -0.136910 0.981077 0.136910
vn -0.136910 0.981077 0.136910
vn 0.202277 -0.958211 -0.202277
vn 0.202277 -0.958211 -0.202277
vn 0.202277 -0.958211 -0.202277
vn 0.202277 -0.958211 -0.202277
vn -0.187023 0.981077 0.050112
vn -0.187023 0.981077 0.050112
vn -0.187023 0.981077 0.050112
vn -0.187023 0.981077 0.050112
vn 0.276316 -0.958211 -0.074038
vn 0.276316 -0.958211 -0.074038
vn 0.276316 -0.958211 -0.074038
vn 0.276316 -0.958211 -0.074038
vn -0.187023 0.981077 -0.050113
vn -0.187023 0.981077 -0.050113
vn -0.187023 0.981077 -0.050113
vn -0.187023 0.981077 -0.050113
vn 0.276316 -0.958211 0.074039
vn 0.276316 -0.958211 0.074039
vn 0.276316 -0.958211 0.074039
vn 0.276316 -0.958211 0.074039
vn -0.136910 0.981077 -0.136910
vn -0.136910 0.981077 -0.136910
vn -0.136910 0.981077 -0.136910
vn -0.136910 0.981077 -0.136910
vn 0.202277 -0.958211 0.202278
vn 0.202277 -0.958211 0.202278
vn 0.202277 -0.958211 0.202278
vn 0.202277 -0.958211 0.202278
vn -0.050113 0.981077 -0.187023
vn -0.050113 0.981077 -0.187023
vn -0.050113 0.981077 -0.187023
vn -0.050113 0.981077 -0.187023
vn 0.074039 -0.958211 0.276316
vn 0.074039 -0.958211 0.276316
vn 0.074039 -0.958211 0.276316
vn 0.074039 -0.958211 0.276316
vn 0.050112 0.981077 -0.187023
vn 0.050112 0.981077 -0.187023
vn 0.050112 0.981077 -0.187023
vn 0.050112 0.981077 -0.187023
vn -0.074039 -0.958211 0.276316
vn -0.074039 -0.958211 0.276316
vn -0.074039 -0.958211 0.276316
vn -0.074039 -0.958211 0.276316
vn 0.136910 0.981077 -0.136910
vn 0.136910 0.981077 -0.136910
vn 0.136910 0.981077 -0.136910
vn 0.136910 0.981077 -0.136910
vn -0.202277 -0.958211 0.202278
vn -0.202277 -0.958211 0.202278
vn -0.202277 -0.958211 0.202278
vn -0.202277 -0.958211 0.202278
vn 0.187023 0.981077 -0.050113
vn 0.187023 0.981077 -0.050113
vn 0.187023 0.981077 -0.050113
vn 0.187023 0.981077 -0.050113
vn -0.276316 -0.958211 0.074039
vn -0.276316 -0.958211 0.074039
vn -0.276316 -0.958211 0.074039
vn -0.276316 -0.958211 0.074039
vn 0.187023 0.981077 0.050112
vn 0.187023 0.981077 0.050112
vn 0.187023 0.981077 0.050112
vn 0.187023 0.981077 0.050112
vn -0.276316 -0.958211 -0.074038
vn -0.276316 -0.958211 -0.074038
vn -0.276316 -0.958211 -0.074038
vn -0.276316 -0.958211 -0.074038
vn 0.136910 0.981077 0.136910
vn 0.136910 0.981077 0.136910
vn 0.136910 0.981077 0.136910
vn 0.136910 0.981077 0.136910
vn -0.202277 -0.958211 -0.202277
vn -0.202277 -0.958211 -0.202277
vn -0.202277 -0.958211 -0.202277
vn -0.202277 -0.958211 -0.202277
vn 0.050113 0.981077 0.187022
vn 0.050113 0.981077 0.187022
vn 0.050113 0.981077 0.187022
vn 0.050113 0.981077 0.187022
vn -0.074039 -0.958211 -0.276316
vn -0.074039 -0.958211 -0.276316
vn -0.074039 -0.958211 -0.276316
vn -0.074039 -0.958211 -0.276316
vn -0.000000 1.000000 -0.000000
vn -0.000000 1.000000 -0.000000
vn -0.000000 1.000000 -0.000000
vn -0.000000 1.000000 -0.000000
vn -0.000000 1.000000 -0.000000
vn -0.000000 1.000000 -0.000000
vn -0.000000 1.000000 -0.000000
vn -0.000000 1.000000 -0.000000
vn -0.000000 1.000000 -0.000000
vn -0.000000 1.000000 -0.000000
vn -0.000000 1.000000 -0.000000
vn -0.000000 1.000000 -0.000000
vn -0.370387 0.851838 0.370386
vn -0.370387 0.851838 0.370386
vn -0.370387 0.851838 0.370386
vn -0.370387 0.851838 0.370386
vn 0.505957 0.851838 -0.135571
vn 0.505957 0.851838 -0.135571
vn 0.505957 0.851838 -0.135571
vn 0.505957 0.851838 -0.135571
vn -0.505958 0.851838 -0.135571
vn -0.505958 0.851838 -0.135571
vn -0.505958 0.851838 -0.135571
vn -0.505958 0.851838 -0.135571
vn 0.370386 0.851838 0.370386
vn 0.370386 0.851838 0.370386
vn 0.370386 0.851838 0.370386
vn 0.370386 0.851838 0.370386
vn -0.135571 0.851838 -0.505957
vn -0.135571 0.851838 -0.505957
vn -0.135571 0.851838 -0.505957
vn -0.135571 0.851838 -0.505957
vn -0.135571 0.851838 0.505957
vn -0.135571 0.851838 0.505957
vn -0.135571 0.851838 0.505957
vn -0.135571 0.851838 0.505957
vn 0.370386 0.851838 -0.370387
vn 0.370386 0.851838 -0.370387
vn 0.370386 0.851838 -0.370387
vn 0.370386 0.851838 -0.370387
vn -0.505957 0.851838 0.135571
vn -0.505957 0.851838 0.135571
vn -0.505957 0.851838 0.135571
vn -0.505957 0.851838 0.135571
vn 0.505957 0.851838 0.135571
vn 0.505957 0.851838 0.135571
vn 0.505957 0.851838 0.135571
vn 0.505957 0.851838 0.135571
vn -0.370387 0.851838 -0.370387
vn -0.370387 0.851838 -0.370387
vn -0.370387 0.851838 -0.370387
vn -0.370387 0.851838 -0.370387
vn 0.135571 0.851838 0.505957
vn 0.135571 0.851838 0.505957
vn 0.135571 0.851838 0.505957
vn 0.135571 0.851838 0.505957
vn -0.211467 -0.576574 -0.789205
vn -0.211467 -0.576574 -0.789205
vn -0.211467 -0.576574 -0.789205
vn -0.211467 -0.576574 -0.789205
vn -0.577738 -0.576574 -0.577738
vn -0.577738 -0.576574 -0.577738
vn -0.577738 -0.576574 -0.577738
vn -0.577738 -0.576574 -0.577738
vn -0.789205 -0.576574 -0.211467
vn -0.789205 -0.576574 -0.211467
vn -0.789205 -0.576574 -0.211467
vn -0.789205 -0.576574 -0.211467
vn -0.789205 -0.576574 0.211467
vn -0.789205 -0.576574 0.211467
vn -0.789205 -0.576574 0.211467
vn -0.789205 -0.576574 0.211467
vn -0.577738 -0.576574 0.577738
vn -0.577738 -0.576574 0.577738
vn -0.577738 -0.576574 0.577738
vn -0.577738 -0.576574 0.577738
vn -0.211467 -0.576573 0.789205
vn -0.211467 -0.576573 0.789205
vn -0.211467 -0.576573 0.789205
vn -0.211467 -0.576573 0.789205
vn 0.211467 -0.576573 0.789205
vn 0.211467 -0.576573 0.789205
vn 0.211467 -0.576573 0.789205
vn 0.211467 -0.576573 0.789205
vn 0.577738 -0.576574 0.577738
vn 0.577738 -0.576574 0.577738
vn 0.577738 -0.576574 0.577738
vn 0.577738 -0.576574 0.577738
vn 0.789205 -0.576574 0.211467
vn 0.789205 -0.576574 0.211467
vn 0.789205 -0.576574 0.211467
vn 0.789205 -0.576574 0.211467
vn 0.789205 -0.576574 -0.211467
vn 0.789205 -0.576574 -0.211467
vn 0.789205 -0.576574 -0.211467
vn 0.789205 -0.576574 -0.211467
vn 0.577738 -0.576574 -0.577738
vn 0.577738 -0.576574 -0.577738
vn 0.577738 -0.576574 -0.577738
vn 0.577738 -0.576574 -0.577738
vn 0.211467 -0.576573 -0.789205
vn 0.211467 -0.576573 -0.789205
vn 0.211467 -0.576573 -0.789205
vn 0.211467 -0.576573 -0.789205
s off
g Plate_PIVOT Kitchen_Props Cocina
usemtl standardSurface23SG
f 25/85/1 26/84/2 27/97/3 28/98/4
f 26/84/5 29/83/6 30/96/7 27/97/8
f 29/83/9 31/82/10 32/95/11 30/96/12
f 31/82/13 33/81/14 34/94/15 32/95/16
f 33/81/17 35/80/18 36/93/19 34/94/20
f 35/80/21 37/79/22 38/92/23 36/93/24
f 37/79/25 39/78/26 40/91/27 38/92/28
f 39/78/29 41/77/30 42/90/31 40/91/32
f 41/77/33 43/76/34 44/89/35 42/90/36
f 43/76/37 45/75/38 46/88/39 44/89/40
f 4/58/41 6/48/42 8/33/43 10/26/44 12/13/45 14/8/46 16/18/47 18/25/48 20/40/49 22/47/50 24/55/51 2/63/52
f 45/75/53 47/74/54 48/87/55 46/88/56
f 47/74/57 25/73/58 28/86/59 48/87/60
f 13/9/61 55/10/62 56/15/63 15/14/64
f 3/59/65 26/69/66 25/72/67 1/64/68
f 61/70/69 28/71/70 27/67/71 62/62/72
f 5/45/73 29/54/74 26/69/75 3/59/76
f 62/62/77 27/67/78 30/52/79 63/50/80
f 7/41/81 31/39/82 29/54/83 5/45/84
f 63/50/85 30/52/86 32/35/87 64/34/88
f 9/29/89 33/22/90 31/39/91 7/41/92
f 64/34/93 32/35/94 34/20/95 65/24/96
f 11/16/97 35/7/98 33/22/99 9/29/100
f 65/24/101 34/20/102 36/5/103 66/11/104
f 13/9/105 37/2/106 35/7/107 11/16/108
f 66/11/109 36/5/110 38/1/111 67/3/112
f 15/14/113 39/6/114 37/2/115 13/9/116
f 67/3/117 38/1/118 40/4/119 68/12/120
f 17/27/121 41/21/122 39/6/123 15/14/124
f 68/12/125 40/4/126 42/19/127 69/23/128
f 19/37/129 43/36/130 41/21/131 17/27/132
f 69/23/133 42/19/134 44/31/135 70/32/136
f 21/43/137 45/53/138 43/36/139 19/37/140
f 70/32/141 44/31/142 46/51/143 71/49/144
f 23/56/145 47/68/146 45/53/147 21/43/148
f 71/49/149 46/51/150 48/66/151 72/61/152
f 1/64/153 25/72/154 47/68/155 23/56/156
f 72/61/157 48/66/158 28/71/159 61/70/160
f 49/65/161 60/57/162 59/44/163 58/38/164 57/28/165 56/15/166 55/10/167 54/17/168 53/30/169 52/42/170 51/46/171 50/60/172
f 3/59/173 50/60/174 51/46/175 5/45/176
f 17/27/177 57/28/178 58/38/179 19/37/180
f 7/41/181 52/42/182 53/30/183 9/29/184
f 21/43/185 59/44/186 60/57/187 23/56/188
f 11/16/189 54/17/190 55/10/191 13/9/192
f 1/64/193 49/65/194 50/60/195 3/59/196
f 15/14/197 56/15/198 57/28/199 17/27/200
f 5/45/201 51/46/202 52/42/203 7/41/204
f 19/37/205 58/38/206 59/44/207 21/43/208
f 9/29/209 53/30/210 54/17/211 11/16/212
f 23/56/213 60/57/214 49/65/215 1/64/216
f 24/55/217 72/61/218 61/70/219 2/63/220
f 22/47/221 71/49/222 72/61/223 24/55/224
f 20/40/225 70/32/226 71/49/227 22/47/228
f 18/25/229 69/23/230 70/32/231 20/40/232
f 16/18/233 68/12/234 69/23/235 18/25/236
f 14/8/237 67/3/238 68/12/239 16/18/240
f 12/13/241 66/11/242 67/3/243 14/8/244
f 10/26/245 65/24/246 66/11/247 12/13/248
f 8/33/249 64/34/250 65/24/251 10/26/252
f 6/48/253 63/50/254 64/34/255 8/33/256
f 4/58/257 62/62/258 63/50/259 6/48/260
f 2/63/261 61/70/262 62/62/263 4/58/264
