# This file uses centimeters as units for non-parametric coordinates.

mtllib Recipiente_Utenisilios.mtl
g default
v 0.000000 0.041474 -6.341287
v 0.000000 19.139654 -5.846476
v 2.426683 0.041474 -5.858588
v 2.237333 19.139654 -5.401444
v 4.483987 0.041474 -4.483987
v 4.134075 19.139654 -4.134075
v 5.858588 0.041474 -2.426683
v 5.401444 19.139654 -2.237333
v 6.341287 0.041474 0.000000
v 5.846476 19.139654 0.000000
v 5.858588 0.041474 2.426683
v 5.401444 19.139654 2.237333
v 4.483987 0.041474 4.483987
v 4.134075 19.139654 4.134075
v 2.426683 0.041474 5.858588
v 2.237333 19.139654 5.401444
v 0.000000 0.041474 6.341287
v 0.000000 19.139654 5.846476
v -2.426683 0.041474 5.858588
v -2.237333 19.139654 5.401444
v -4.483987 0.041474 4.483987
v -4.134075 19.139654 4.134075
v -5.858588 0.041474 2.426683
v -5.401444 19.139654 2.237333
v -6.341287 0.041474 0.000000
v -5.846476 19.139654 0.000000
v -5.858588 0.041474 -2.426683
v -5.401444 19.139654 -2.237333
v -4.483987 0.041474 -4.483987
v -4.134075 19.139654 -4.134075
v -2.426683 0.041474 -5.858588
v -2.237333 19.139654 -5.401444
v 2.426683 19.139654 -5.858588
v 0.000000 19.139654 -6.341287
v 4.483987 19.139654 -4.483987
v 5.858588 19.139654 -2.426683
v 6.341287 19.139654 0.000000
v 5.858588 19.139654 2.426683
v 4.483987 19.139654 4.483987
v 2.426683 19.139654 5.858588
v 0.000000 19.139654 6.341287
v -2.426683 19.139654 5.858588
v -4.483987 19.139654 4.483987
v -5.858588 19.139654 2.426683
v -6.341287 19.139654 0.000000
v -5.858588 19.139654 -2.426683
v -4.483987 19.139654 -4.483987
v -2.426683 19.139654 -5.858588
vt 0.497590 0.723997
vt 0.574934 0.615867
vt 0.586613 0.620705
vt 0.510231 0.723995
vt 0.599255 0.620705
vt 0.522873 0.723993
vt 0.610934 0.615867
vt 0.535515 0.723991
vt 0.619874 0.606929
vt 0.548156 0.723989
vt 0.624711 0.595249
vt 0.560798 0.723987
vt 0.624712 0.582608
vt 0.573439 0.723985
vt 0.619874 0.570928
vt 0.586081 0.723984
vt 0.610935 0.561989
vt 0.598723 0.723982
vt 0.599256 0.557151
vt 0.611364 0.723980
vt 0.586614 0.557151
vt 0.624006 0.723977
vt 0.574935 0.561989
vt 0.636648 0.723976
vt 0.565996 0.570928
vt 0.447024 0.724005
vt 0.561158 0.582607
vt 0.459666 0.724003
vt 0.561158 0.595249
vt 0.472307 0.724001
vt 0.565996 0.606928
vt 0.484948 0.723999
vt 0.576339 0.613765
vt 0.587107 0.618225
vt 0.598762 0.618226
vt 0.609530 0.613765
vt 0.617772 0.605524
vt 0.622232 0.594756
vt 0.622232 0.583101
vt 0.617772 0.572333
vt 0.609531 0.564091
vt 0.598763 0.559631
vt 0.587107 0.559631
vt 0.576339 0.564091
vt 0.568098 0.572332
vt 0.563637 0.583100
vt 0.563637 0.594756
vt 0.568097 0.605524
vt 0.497575 0.626419
vt 0.484934 0.626421
vt 0.472292 0.626423
vt 0.459650 0.626425
vt 0.649274 0.626396
vt 0.636633 0.626398
vt 0.623991 0.626400
vt 0.611349 0.626402
vt 0.598708 0.626404
vt 0.586066 0.626406
vt 0.573425 0.626408
vt 0.560783 0.626410
vt 0.548141 0.626412
vt 0.535500 0.626414
vt 0.522859 0.626415
vt 0.510217 0.626417
vt 0.447009 0.626427
vt 0.649289 0.723974
vn 0.195097 0.000000 -0.980784
vn 0.195097 0.000000 -0.980784
vn 0.195097 0.000000 -0.980784
vn 0.195097 0.000000 -0.980784
vn 0.555577 0.000000 -0.831465
vn 0.555577 0.000000 -0.831465
vn 0.555577 0.000000 -0.831465
vn 0.555577 0.000000 -0.831465
vn 0.831465 0.000000 -0.555577
vn 0.831465 0.000000 -0.555577
vn 0.831465 0.000000 -0.555577
vn 0.831465 0.000000 -0.555577
vn 0.980784 0.000000 -0.195097
vn 0.980784 0.000000 -0.195097
vn 0.980784 0.000000 -0.195097
vn 0.980784 0.000000 -0.195097
vn 0.980784 0.000000 0.195097
vn 0.980784 0.000000 0.195097
vn 0.980784 0.000000 0.195097
vn 0.980784 0.000000 0.195097
vn 0.831465 0.000000 0.555577
vn 0.831465 0.000000 0.555577
vn 0.831465 0.000000 0.555577
vn 0.831465 0.000000 0.555577
vn 0.555577 0.000000 0.831465
vn 0.555577 0.000000 0.831465
vn 0.555577 0.000000 0.831465
vn 0.555577 0.000000 0.831465
vn 0.195097 0.000000 0.980784
vn 0.195097 0.000000 0.980784
vn 0.195097 0.000000 0.980784
vn 0.195097 0.000000 0.980784
vn -0.195097 0.000000 0.980784
vn -0.195097 0.000000 0.980784
vn -0.195097 0.000000 0.980784
vn -0.195097 0.000000 0.980784
vn -0.555577 0.000000 0.831465
vn -0.555577 0.000000 0.831465
vn -0.555577 0.000000 0.831465
vn -0.555577 0.000000 0.831465
vn -0.831465 0.000000 0.555577
vn -0.831465 0.000000 0.555577
vn -0.831465 0.000000 0.555577
vn -0.831465 0.000000 0.555577
vn -0.980784 0.000000 0.195097
vn -0.980784 0.000000 0.195097
vn -0.980784 0.000000 0.195097
vn -0.980784 0.000000 0.195097
vn -0.980784 0.000000 -0.195097
vn -0.980784 0.000000 -0.195097
vn -0.980784 0.000000 -0.195097
vn -0.980784 0.000000 -0.195097
vn -0.831465 0.000000 -0.555577
vn -0.831465 0.000000 -0.555577
vn -0.831465 0.000000 -0.555577
vn -0.831465 0.000000 -0.555577
vn -0.555577 0.000000 -0.831465
vn -0.555577 0.000000 -0.831465
vn -0.555577 0.000000 -0.831465
vn -0.555577 0.000000 -0.831465
vn -0.195097 0.000000 -0.980784
vn -0.195097 0.000000 -0.980784
vn -0.195097 0.000000 -0.980784
vn -0.195097 0.000000 -0.980784
vn 0.000000 1.000000 0.000000
vn 0.000000 1.000000 0.000000
vn 0.000000 1.000000 0.000000
vn 0.000000 1.000000 0.000000
vn 0.000000 1.000000 0.000000
vn 0.000000 1.000000 0.000000
vn 0.000000 1.000000 0.000000
vn 0.000000 1.000000 0.000000
vn 0.000000 1.000000 0.000000
vn 0.000000 1.000000 0.000000
vn 0.000000 1.000000 0.000000
vn 0.000000 1.000000 0.000000
vn 0.000000 1.000000 0.000000
vn 0.000000 1.000000 0.000000
vn 0.000000 1.000000 0.000000
vn 0.000000 1.000000 0.000000
vn 0.000000 1.000000 0.000000
vn 0.000000 1.000000 0.000000
vn 0.000000 1.000000 0.000000
vn 0.000000 1.000000 0.000000
vn 0.000000 1.000000 0.000000
vn 0.000000 1.000000 0.000000
vn 0.000000 1.000000 0.000000
vn 0.000000 1.000000 0.000000
vn 0.000000 1.000000 0.000000
vn 0.000000 1.000000 0.000000
vn 0.000000 1.000000 0.000000
vn 0.000000 1.000000 0.000000
vn 0.000000 1.000000 0.000000
vn 0.000000 1.000000 0.000000
vn 0.000000 1.000000 0.000000
vn 0.000000 1.000000 0.000000
vn 0.000000 1.000000 0.000000
vn 0.000000 1.000000 0.000000
vn 0.000000 1.000000 0.000000
vn 0.000000 1.000000 0.000000
vn 0.000000 1.000000 0.000000
vn 0.000000 1.000000 0.000000
vn 0.000000 1.000000 0.000000
vn 0.000000 1.000000 0.000000
vn 0.000000 1.000000 0.000000
vn 0.000000 1.000000 0.000000
vn 0.000000 1.000000 0.000000
vn 0.000000 1.000000 0.000000
vn 0.000000 1.000000 0.000000
vn 0.000000 1.000000 0.000000
vn 0.000000 1.000000 0.000000
vn 0.000000 1.000000 0.000000
vn 0.000000 1.000000 0.000000
vn 0.000000 1.000000 0.000000
vn 0.000000 1.000000 0.000000
vn 0.000000 1.000000 0.000000
vn 0.000000 1.000000 0.000000
vn 0.000000 1.000000 0.000000
vn 0.000000 1.000000 0.000000
vn 0.000000 1.000000 0.000000
vn 0.000000 1.000000 0.000000
vn 0.000000 1.000000 0.000000
vn 0.000000 1.000000 0.000000
vn 0.000000 1.000000 0.000000
vn 0.000000 1.000000 0.000000
vn 0.000000 1.000000 0.000000
vn 0.000000 1.000000 0.000000
vn 0.000000 1.000000 0.000000
s off
g Recipiente_PIVOT Kitchen_Props Cocina
usemtl standardSurface23SG
f 1/1/1 34/49/2 33/64/3 3/4/4
f 3/4/5 33/64/6 35/63/7 5/6/8
f 5/6/9 35/63/10 36/62/11 7/8/12
f 7/8/13 36/62/14 37/61/15 9/10/16
f 9/10/17 37/61/18 38/60/19 11/12/20
f 11/12/21 38/60/22 39/59/23 13/14/24
f 13/14/25 39/59/26 40/58/27 15/16/28
f 15/16/29 40/58/30 41/57/31 17/18/32
f 17/18/33 41/57/34 42/56/35 19/20/36
f 19/20/37 42/56/38 43/55/39 21/22/40
f 21/22/41 43/55/42 44/54/43 23/24/44
f 23/24/45 44/54/46 45/53/47 25/66/48
f 25/26/49 45/65/50 46/52/51 27/28/52
f 27/28/53 46/52/54 47/51/55 29/30/56
f 29/30/57 47/51/58 48/50/59 31/32/60
f 31/32/61 48/50/62 34/49/63 1/1/64
f 2/33/65 4/34/66 33/3/67 34/2/68
f 4/34/69 6/35/70 35/5/71 33/3/72
f 6/35/73 8/36/74 36/7/75 35/5/76
f 8/36/77 10/37/78 37/9/79 36/7/80
f 10/37/81 12/38/82 38/11/83 37/9/84
f 12/38/85 14/39/86 39/13/87 38/11/88
f 14/39/89 16/40/90 40/15/91 39/13/92
f 16/40/93 18/41/94 41/17/95 40/15/96
f 18/41/97 20/42/98 42/19/99 41/17/100
f 20/42/101 22/43/102 43/21/103 42/19/104
f 22/43/105 24/44/106 44/23/107 43/21/108
f 24/44/109 26/45/110 45/25/111 44/23/112
f 26/45/113 28/46/114 46/27/115 45/25/116
f 28/46/117 30/47/118 47/29/119 46/27/120
f 30/47/121 32/48/122 48/31/123 47/29/124
f 32/48/125 2/33/126 34/2/127 48/31/128
