# This file uses centimeters as units for non-parametric coordinates.

mtllib Carne_Podrida.mtl
g default
v 3.088166 0.058058 -2.451920
v -16.466539 0.293190 2.940440
v 3.135119 0.058057 -5.326771
v -2.435315 0.058057 -6.888175
v -2.482268 0.058058 -4.013323
v -16.502058 0.058058 -3.192067
v -12.343052 0.058058 -1.889300
v -14.954721 0.058058 -4.721879
v 8.642252 0.058058 -4.524922
v 6.801787 0.058058 -2.304220
v -9.494543 0.058058 -4.889059
v -11.473203 0.058056 -8.080339
v -6.702289 0.058057 -5.363822
v -6.655338 0.058057 -8.238578
v 12.630177 0.058058 -2.710318
v 10.114508 0.058058 -1.713490
v 15.246593 0.058058 -1.043415
v 12.055722 0.058059 -0.447440
v 14.634686 0.058059 1.847268
v 12.224513 0.058059 0.649763
v 12.355871 0.058059 3.260970
v 10.262203 0.058059 1.915717
v -2.364954 0.058060 4.453683
v -2.810898 0.058060 6.896949
v 7.967043 0.058060 5.286599
v 7.258387 0.058059 3.055978
v -7.082936 0.058060 4.058695
v -7.528889 0.058060 6.501961
v -12.282276 0.085037 2.727676
v -12.876508 0.058060 4.861212
v 2.974223 0.058060 3.754831
v 3.105573 0.058060 6.091810
v -10.202703 0.058060 5.681587
v -9.756747 0.058059 3.238321
v 8.642252 3.257091 -4.524922
v 3.135119 3.257091 -5.326772
v -16.353720 3.257093 2.990675
v -2.435315 3.257090 -6.888175
v -16.632826 3.257092 -3.174639
v -6.702289 3.257091 -5.363822
v -2.482268 3.257092 -4.013419
v -6.655338 3.257090 -8.238578
v -14.954721 3.257091 -4.721880
v -12.343052 3.257092 -1.889300
v 12.630177 3.257091 -2.710343
v 10.114508 3.257092 -1.713491
v -11.473203 3.257090 -8.080339
v -9.494543 3.257091 -4.889059
v 15.246593 3.257092 -1.043415
v 12.055722 3.257091 -0.447464
v 14.634686 3.257093 1.847267
v 12.224513 3.257092 0.649762
v 12.355871 3.257093 3.260970
v 10.262203 3.257093 1.915717
v 2.974223 3.257093 3.754830
v -2.364954 3.257093 4.453683
v 3.105573 3.257094 6.091809
v 7.967043 3.257093 5.286598
v -2.810898 3.257093 6.896949
v 7.258387 3.257093 3.055978
v -7.528889 3.257093 6.501961
v -7.082936 3.257093 4.058695
v -12.876508 3.257093 4.861212
v -12.018365 3.450779 2.402687
v -10.202703 3.257094 5.681586
v -9.756747 3.257093 3.238296
v 6.793033 3.325642 -1.530051
v 3.454380 3.257092 -2.031422
v -13.213965 0.058057 -6.401109
v -10.918799 0.058058 -3.389120
v -11.093649 0.058059 2.828169
v -11.539605 0.058060 5.271435
v -11.539605 3.257093 5.271435
v -11.093649 3.257093 2.828169
v -10.918799 3.257092 -3.389120
v -13.213965 3.257090 -6.401110
v -13.530186 0.000919 -0.685167
v -13.883504 0.137781 1.733256
v -14.030236 3.242960 -1.326251
v -13.592118 3.299057 1.849222
vt 0.812121 0.022545
vt 0.812121 0.016388
vt 0.742247 0.176351
vt 0.749926 0.165163
vt 0.812121 0.053767
vt 0.812121 0.042286
vt 0.755221 0.124137
vt 0.765132 0.091747
vt 0.812121 0.062561
vt 0.773621 0.067232
vt 0.812121 0.031240
vt 0.753843 0.145854
vt 0.812121 0.163367
vt 0.812121 0.158045
vt 0.728662 0.165525
vt 0.735801 0.177187
vt 0.790184 0.039682
vt 0.771229 0.050822
vt 0.754065 0.033733
vt 0.812121 0.081728
vt 0.812121 0.076928
vt 0.762647 0.042278
vt 0.705209 0.123056
vt 0.812121 0.126821
vt 0.715555 0.091261
vt 0.718906 0.122610
vt 0.812121 0.117425
vt 0.718520 0.063699
vt 0.812121 0.148451
vt 0.722404 0.147784
vt 0.726276 0.040390
vt 0.812121 0.109099
vt 0.714614 0.029682
vt 0.727027 0.033443
vt 0.812121 0.111874
vt 0.723691 0.048160
vt 0.805862 0.022545
vt 0.779109 0.342270
vt 0.771428 0.353457
vt 0.774475 0.372217
vt 0.805862 0.053767
vt 0.794313 0.268849
vt 0.781889 0.303324
vt 0.801223 0.301912
vt 0.805862 0.062561
vt 0.802805 0.244332
vt 0.805862 0.031240
vt 0.778494 0.322801
vt 0.748086 0.299714
vt 0.805862 0.138672
vt 0.805862 0.148451
vt 0.751584 0.324888
vt 0.805862 0.163367
vt 0.764982 0.354293
vt 0.757843 0.342631
vt 0.805862 0.158045
vt 0.805862 0.072128
vt 0.800415 0.227919
vt 0.783248 0.210822
vt 0.791832 0.219371
vt 0.805862 0.076928
vt 0.800213 0.195936
vt 0.744734 0.268364
vt 0.805862 0.126821
vt 0.747701 0.240804
vt 0.805862 0.117425
vt 0.741221 0.214530
vt 0.755469 0.217511
vt 0.758094 0.212046
vt 0.743803 0.206741
vt 0.752878 0.225272
vt 0.738635 0.222309
vt 0.755253 0.186580
vt 0.791409 0.185884
vt 0.762268 0.009562
vt 0.726337 0.008881
vt 0.747182 0.026611
vt 0.733059 0.024191
vt 0.780203 0.200842
vt 0.761545 0.202900
vt 0.757639 0.368235
vt 0.805862 0.016388
vt 0.805862 0.169231
vt 0.809791 0.206364
vt 0.805862 0.081728
vt 0.805862 0.109099
vt 0.805862 0.111874
vt 0.712035 0.037449
vt 0.812121 0.106323
vt 0.780596 0.029260
vt 0.812121 0.072128
vt 0.812121 0.098365
vt 0.805862 0.098365
vt 0.805862 0.106323
vt 0.709249 0.151624
vt 0.812121 0.138672
vt 0.805862 0.042286
vt 0.795771 0.334041
vt 0.745293 0.195111
vt 0.812121 0.169231
vt 0.728457 0.191129
vt 0.733461 0.237853
vt 0.738429 0.328728
vt 0.749679 0.354699
vt 0.730494 0.265415
vt 0.734388 0.300159
vt 0.819374 0.216789
vt 0.819625 0.245008
vt 0.805862 0.086153
vt 0.784595 0.357133
vt 0.811134 0.269522
vt 0.704280 0.060752
vt 0.709450 0.045217
vt 0.720498 0.177594
vt 0.701316 0.088313
vt 0.771008 0.018836
vt 0.790442 0.067905
vt 0.812121 0.086153
vt 0.772043 0.124810
vt 0.766587 0.156935
vt 0.755413 0.180027
vt 0.781953 0.092420
vn -0.000000 -1.000000 0.000001
vn -0.000000 -1.000000 0.000001
vn -0.000000 -1.000000 0.000001
vn -0.000000 -1.000000 0.000001
vn 0.000000 -1.000000 0.000000
vn 0.000000 -1.000000 0.000000
vn 0.000000 -1.000000 0.000000
vn 0.000000 -1.000000 0.000000
vn -0.000000 -1.000000 0.000000
vn -0.000000 -1.000000 0.000000
vn -0.000000 -1.000000 0.000000
vn -0.000000 -1.000000 0.000000
vn 0.000000 -1.000000 0.000000
vn 0.000000 -1.000000 0.000000
vn 0.000000 -1.000000 0.000000
vn 0.000000 -1.000000 0.000000
vn 0.000000 -1.000000 0.000000
vn 0.000000 -1.000000 0.000000
vn 0.000000 -1.000000 0.000000
vn 0.000000 -1.000000 0.000000
vn 0.000000 -1.000000 0.000000
vn 0.000000 -1.000000 0.000000
vn 0.000000 -1.000000 0.000000
vn 0.000000 -1.000000 0.000000
vn 0.000000 -1.000000 0.000001
vn 0.000000 -1.000000 0.000001
vn 0.000000 -1.000000 0.000001
vn 0.000000 -1.000000 0.000001
vn 0.002418 -0.999967 -0.007720
vn 0.002282 -0.999971 -0.007285
vn -0.000000 -1.000000 0.000000
vn -0.000000 -1.000000 0.000000
vn -0.000000 -1.000000 0.000000
vn -0.000000 -1.000000 0.000000
vn -0.000000 -1.000000 0.000000
vn -0.000000 -1.000000 0.000000
vn 0.000000 -1.000000 0.000000
vn 0.000000 -1.000000 0.000000
vn 0.000000 -1.000000 0.000000
vn 0.000000 -1.000000 0.000000
vn -0.000000 -1.000000 0.000000
vn -0.000000 -1.000000 0.000000
vn -0.000000 -1.000000 0.000000
vn -0.000000 -1.000000 0.000000
vn -0.004270 -0.999984 -0.003744
vn -0.003902 -0.999987 -0.003422
vn -0.009072 -0.999927 -0.007956
vn -0.009072 -0.999927 -0.007956
vn -0.000000 -1.000000 0.000000
vn -0.000000 -1.000000 0.000000
vn -0.000000 -1.000000 0.000000
vn -0.000000 -1.000000 0.000000
vn 0.000000 1.000000 0.000000
vn 0.000000 1.000000 0.000000
vn 0.000000 1.000000 0.000000
vn 0.000000 1.000000 0.000000
vn -0.000000 1.000000 -0.000000
vn -0.000000 1.000000 -0.000000
vn -0.000000 1.000000 -0.000000
vn -0.000000 1.000000 -0.000000
vn 0.000000 1.000000 -0.000001
vn 0.000000 1.000000 -0.000001
vn 0.000000 1.000000 -0.000001
vn 0.000000 1.000000 -0.000001
vn 0.010619 0.999928 -0.005561
vn 0.010619 0.999928 -0.005561
vn 0.010619 0.999928 -0.005561
vn 0.010619 0.999928 -0.005561
vn 0.000000 1.000000 -0.000000
vn 0.000000 1.000000 -0.000000
vn 0.000000 1.000000 -0.000000
vn 0.000000 1.000000 -0.000000
vn -0.000000 1.000000 0.000000
vn -0.000000 1.000000 0.000000
vn -0.000000 1.000000 0.000000
vn -0.000000 1.000000 0.000000
vn -0.000000 1.000000 -0.000000
vn -0.000000 1.000000 -0.000000
vn -0.000000 1.000000 -0.000000
vn -0.000000 1.000000 -0.000000
vn -0.000509 0.999999 0.001697
vn -0.000000 1.000000 -0.000000
vn -0.000000 1.000000 -0.000000
vn -0.000592 0.999998 0.001976
vn -0.000000 1.000000 -0.000000
vn -0.000000 1.000000 -0.000000
vn -0.000000 1.000000 -0.000000
vn -0.000000 1.000000 -0.000000
vn 0.000000 1.000000 0.000000
vn 0.000000 1.000000 0.000000
vn 0.000000 1.000000 0.000000
vn 0.000000 1.000000 0.000000
vn 0.000000 1.000000 -0.000000
vn 0.000000 1.000000 -0.000000
vn 0.000000 1.000000 -0.000000
vn 0.000000 1.000000 -0.000000
vn 0.027910 0.999311 0.024476
vn 0.033890 0.998984 0.029720
vn 0.064443 0.996320 0.056513
vn 0.064443 0.996320 0.056513
vn -0.000000 1.000000 -0.000000
vn -0.000000 1.000000 -0.000000
vn -0.000000 1.000000 -0.000000
vn -0.000000 1.000000 -0.000000
vn 0.000000 1.000000 -0.000000
vn 0.000000 1.000000 -0.000000
vn 0.000000 1.000000 -0.000000
vn 0.000000 1.000000 -0.000000
vn 0.000000 1.000000 -0.000000
vn 0.000000 1.000000 -0.000000
vn 0.000000 1.000000 -0.000000
vn 0.000000 1.000000 -0.000000
vn -0.000000 1.000000 -0.000000
vn -0.000000 1.000000 -0.000000
vn -0.000000 1.000000 -0.000000
vn -0.000000 1.000000 -0.000000
vn -0.000000 -1.000000 0.000000
vn -0.000000 -1.000000 0.000000
vn -0.000000 -1.000000 0.000000
vn -0.000000 -1.000000 0.000000
vn 0.021213 0.999759 -0.005618
vn 0.011882 0.999924 -0.003147
vn 0.073335 0.997118 -0.019423
vn 0.073335 0.997118 -0.019423
vn 0.000000 1.000000 -0.000001
vn 0.000000 1.000000 -0.000001
vn 0.000000 1.000000 -0.000001
vn 0.000000 1.000000 -0.000001
vn 0.527165 0.000000 0.849763
vn 0.527165 0.000000 0.849763
vn 0.527165 0.000000 0.849763
vn 0.527165 0.000000 0.849763
vn 0.269900 -0.000000 -0.962889
vn 0.269899 -0.000000 -0.962888
vn 0.269900 -0.000000 -0.962889
vn 0.269900 -0.000000 -0.962889
vn 0.537317 -0.000003 -0.843381
vn 0.537317 -0.000003 -0.843381
vn 0.537317 -0.000003 -0.843381
vn 0.537317 -0.000003 -0.843381
vn -0.083428 0.000000 0.996514
vn -0.083428 0.000000 0.996514
vn -0.083428 0.000000 0.996514
vn -0.083428 0.000000 0.996514
vn -0.293347 0.000000 0.956006
vn -0.293323 0.000000 0.956013
vn -0.293323 0.000000 0.956013
vn -0.293347 0.000000 0.956006
vn -0.694273 -0.000000 -0.719712
vn -0.694273 -0.000000 -0.719712
vn -0.694273 -0.000000 -0.719711
vn -0.694273 -0.000000 -0.719711
vn -0.999666 -0.003193 0.025636
vn -0.999666 -0.003193 0.025636
vn -0.999666 -0.003193 0.025636
vn -0.999666 -0.003193 0.025636
vn 0.144083 -0.000000 -0.989566
vn 0.144083 -0.000000 -0.989566
vn 0.144083 -0.000000 -0.989566
vn 0.144083 -0.000000 -0.989566
vn -0.000000 1.000000 -0.000001
vn -0.000000 1.000000 -0.000001
vn -0.000000 1.000000 -0.000001
vn -0.000000 1.000000 -0.000001
vn 0.134842 0.000000 0.990867
vn 0.134842 0.000000 0.990867
vn 0.134842 0.000000 0.990867
vn 0.134842 0.000000 0.990867
vn -0.293322 0.000000 0.956014
vn -0.293323 0.000000 0.956014
vn -0.293322 0.000000 0.956014
vn -0.293322 0.000000 0.956014
vn 0.304775 -0.000000 -0.952425
vn 0.304775 -0.000000 -0.952424
vn 0.304775 -0.000000 -0.952425
vn 0.304775 -0.000000 -0.952425
vn -0.032826 0.000000 -0.999461
vn -0.032826 0.000000 -0.999461
vn -0.032826 0.000000 -0.999461
vn -0.032826 0.000000 -0.999461
vn 0.414162 -0.000004 -0.910203
vn 0.414162 -0.000004 -0.910203
vn 0.414162 -0.000004 -0.910203
vn 0.414162 -0.000004 -0.910203
vn 0.419061 0.000000 0.907958
vn 0.419061 0.000000 0.907958
vn 0.419061 0.000000 0.907958
vn 0.419061 0.000000 0.907958
vn -0.008821 0.999939 0.006596
vn -0.008821 0.999939 0.006596
vn -0.008821 0.999939 0.006596
vn -0.008821 0.999939 0.006596
vn -0.005931 0.999906 -0.012340
vn -0.005931 0.999906 -0.012340
vn -0.005931 0.999906 -0.012340
vn -0.005931 0.999906 -0.012340
vn -0.000000 -1.000000 0.000000
vn -0.000000 -1.000000 0.000000
vn -0.000000 -1.000000 0.000000
vn -0.000000 -1.000000 0.000000
vn 0.163405 0.000000 0.986559
vn 0.163405 0.000000 0.986559
vn 0.163405 0.000000 0.986559
vn 0.163405 0.000000 0.986559
vn 0.978321 0.000000 0.207094
vn 0.978321 0.000000 0.207094
vn 0.978321 0.000000 0.207094
vn 0.978321 0.000000 0.207094
vn 0.012389 0.999896 0.007419
vn 0.012389 0.999896 0.007419
vn 0.012389 0.999896 0.007419
vn 0.012389 0.999896 0.007419
vn -0.000000 -1.000000 0.000000
vn -0.000000 -1.000000 0.000000
vn -0.000000 -1.000000 0.000000
vn -0.000000 -1.000000 0.000000
vn 0.000000 -1.000000 0.000000
vn 0.000000 -1.000000 0.000000
vn 0.000000 -1.000000 0.000000
vn 0.000000 -1.000000 0.000000
vn 0.000000 -1.000000 0.000000
vn 0.000000 -1.000000 0.000000
vn 0.000000 -1.000000 0.000000
vn 0.000000 -1.000000 0.000000
vn -0.000000 -1.000000 0.000000
vn -0.000000 -1.000000 0.000000
vn -0.000000 -1.000000 0.000000
vn -0.000000 -1.000000 0.000000
vn -0.000000 -1.000000 0.000000
vn -0.000000 -1.000000 0.000000
vn -0.000000 -1.000000 0.000000
vn -0.000000 -1.000000 0.000000
vn -0.003362 -0.999994 0.000891
vn -0.009042 -0.999956 0.002395
vn -0.009042 -0.999956 0.002395
vn -0.001620 -0.999999 0.000429
vn -0.690216 -0.012136 -0.723501
vn -0.690216 -0.012136 -0.723501
vn -0.690216 -0.012136 -0.723501
vn -0.690216 -0.012136 -0.723501
vn -0.472695 0.001470 0.881225
vn -0.472695 0.001470 0.881225
vn -0.472695 0.001470 0.881225
vn -0.472695 0.001470 0.881225
vn -0.000000 -1.000000 0.000000
vn -0.000000 -1.000000 0.000000
vn -0.000000 -1.000000 0.000000
vn -0.000000 -1.000000 0.000000
vn 0.000000 -1.000000 0.000001
vn 0.000000 -1.000000 0.000001
vn 0.000000 -1.000000 0.000001
vn 0.000000 -1.000000 0.000001
vn 0.000000 -1.000000 0.000000
vn 0.000000 -1.000000 0.000000
vn -0.000000 -1.000000 0.000000
vn -0.000000 -1.000000 0.000000
vn -0.293300 0.000000 0.956021
vn -0.293300 0.000000 0.956021
vn -0.000000 1.000000 -0.000000
vn -0.000000 1.000000 -0.000000
vn 0.000000 1.000000 -0.000000
vn 0.000000 1.000000 -0.000000
vn -0.000000 1.000000 -0.000000
vn -0.000000 1.000000 -0.000000
vn -0.694272 0.000000 -0.719712
vn -0.694272 0.000000 -0.719712
vn -0.030725 -0.999265 0.022919
vn -0.020668 -0.999715 0.011979
vn -0.048735 -0.998536 0.023492
vn -0.048634 -0.998484 0.025786
vn -0.050155 -0.998698 -0.009307
vn -0.050155 -0.998698 -0.009307
vn 0.003337 -0.999720 0.023420
vn 0.003337 -0.999720 0.023420
vn 0.003337 -0.999720 0.023420
vn 0.003337 -0.999720 0.023420
vn -0.003062 0.999995 -0.001104
vn -0.003399 0.999992 -0.002217
vn -0.050858 0.998308 -0.028198
vn -0.050858 0.998308 -0.028198
vn -0.050858 0.998308 -0.028198
vn -0.050858 0.998308 -0.028198
vn -0.041403 0.998860 0.023753
vn -0.041403 0.998860 0.023753
vn -0.041403 0.998860 0.023753
vn -0.041403 0.998860 0.023753
vn -0.004442 0.999974 -0.005665
vn -0.004442 0.999974 -0.005665
s off
g Steak_PIVOT Kitchen_Props Cocina
usemtl standardSurface23SG
f 15/121/1 17/99/2 18/3/3 16/4/4
f 4/122/5 3/119/6 1/7/7 5/8/8
f 14/117/9 4/122/10 5/8/11 13/10/12
f 9/120/13 15/121/14 16/4/15 10/12/16
f 3/119/17 9/120/18 10/12/19 1/7/20
f 19/101/21 21/114/22 22/15/23 20/16/24
f 12/17/25 14/117/26 13/10/27 11/18/28
s 1
f 7/19/29 8/116/30 69/90/31 70/22/32
s off
f 32/23/33 24/115/34 23/25/35 31/26/36
f 24/115/37 28/112/38 27/28/39 23/25/40
f 22/15/41 21/114/42 25/95/43 26/30/44
s 2
f 71/31/45 72/88/46 30/33/47 29/34/48
s off
f 28/112/49 33/113/50 34/36/51 27/28/52
f 45/110/53 46/38/54 50/39/55 49/40/56
f 38/111/57 41/42/58 68/43/59 36/44/60
f 42/108/61 40/46/62 41/42/63 38/111/64
f 35/98/65 67/48/66 46/38/67 45/110/68
f 55/49/69 57/106/70 58/103/71 60/52/72
f 51/81/73 52/54/74 54/55/75 53/104/76
f 47/107/77 48/58/78 40/46/79 42/108/80
s 3
f 44/59/81 75/60/82 76/84/83 43/62/84
s off
f 57/106/85 55/49/86 56/63/87 59/105/88
f 59/105/89 56/63/90 62/65/91 61/102/92
f 54/55/93 60/52/94 58/103/95 53/104/96
s 4
f 73/67/97 74/68/98 64/69/99 63/70/100
s off
f 56/63/101 55/49/102 68/43/103 41/42/104
f 61/102/105 62/65/106 66/71/107 65/72/108
f 62/65/109 56/63/110 41/42/111 40/46/112
f 66/71/113 62/65/114 40/46/115 48/58/116
f 19/101/117 20/16/118 18/3/119 17/99/120
s 5
f 74/68/121 75/60/122 44/59/123 64/69/124
s off
f 54/55/125 52/54/126 50/39/127 46/38/128
f 21/14/129 19/13/130 51/53/131 53/56/132
f 3/6/133 4/5/134 38/41/135 36/97/136
f 17/2/137 15/1/138 45/37/139 49/82/140
f 28/27/141 24/24/142 59/64/143 61/66/144
s 6
f 30/89/145 72/32/146 73/86/147 63/94/148
s 7
f 76/61/149 69/21/150 8/20/151 43/85/152
s off
f 37/93/153 39/109/154 6/118/155 2/92/156
f 3/6/157 36/97/158 35/47/159 9/11/160
f 52/54/161 51/81/162 49/40/163 50/39/164
f 24/24/165 32/96/166 57/50/167 59/64/168
f 33/35/169 28/27/170 61/66/171 65/87/172
f 4/5/173 14/9/174 42/45/175 38/41/176
f 14/9/177 12/91/178 47/57/179 42/45/180
f 15/1/181 9/11/182 35/47/183 45/37/184
f 25/29/185 21/14/186 53/56/187 58/51/188
f 55/49/189 60/52/190 67/48/191 68/43/192
f 68/43/193 67/48/194 35/98/195 36/44/196
f 25/95/197 32/23/198 31/26/199 26/30/200
f 32/96/201 25/29/202 58/51/203 57/50/204
f 51/53/205 19/13/206 17/100/207 49/83/208
f 54/55/209 46/38/210 67/48/211 60/52/212
f 22/15/213 26/30/214 10/12/215 16/4/216
f 31/26/217 23/25/218 5/8/219 1/7/220
f 20/16/221 22/15/222 16/4/223 18/3/224
f 23/25/225 27/28/226 13/10/227 5/8/228
f 27/28/229 34/36/230 11/18/231 13/10/232
s 8
f 71/31/233 29/34/234 7/19/235 70/22/236
s off
f 8/20/237 6/118/238 39/109/239 43/85/240
f 30/89/241 63/94/242 37/93/243 2/92/244
f 26/30/245 31/26/246 1/7/247 10/12/248
f 70/22/249 69/90/250 12/17/251 11/18/252
s 8
f 34/36/253 71/31/233 70/22/236 11/18/254
s 2
f 33/113/255 72/88/46 71/31/45 34/36/256
s 6
f 73/86/147 72/32/146 33/35/257 65/87/258
s 4
f 65/72/259 66/71/260 74/68/98 73/67/97
s 5
f 66/71/261 48/58/262 75/60/122 74/68/121
s 3
f 76/84/83 75/60/82 48/58/263 47/107/264
s 7
f 12/91/265 69/21/150 76/61/149 47/57/266
s 1
f 8/116/30 7/19/29 77/77/267 6/75/268
f 77/77/267 78/78/269 2/76/270 6/75/268
f 2/76/270 78/78/269 29/34/271 30/33/272
s off
f 7/19/273 29/34/274 78/78/275 77/77/276
s 3
f 44/59/81 43/62/84 39/74/277 79/79/278
s off
f 79/79/279 80/80/280 64/69/281 44/59/282
f 37/73/283 63/70/284 64/69/285 80/80/286
s 3
f 39/74/277 37/73/287 80/80/288 79/79/278
