# This file uses centimeters as units for non-parametric coordinates.

mtllib Mesita.mtl
g default
v -14.193420 32.311928 -14.074652
v -14.193420 37.930115 -14.074652
v -14.193420 32.311928 -9.383121
v -14.193420 37.930115 -9.383121
v -9.501648 32.311928 -14.074652
v -9.501648 37.930115 -14.074652
v -9.501648 37.930115 -9.383121
v -9.501648 32.311928 -9.383121
v -9.501648 -0.261499 -9.383121
v -14.193420 -0.261499 -9.383121
v -14.193420 -0.261499 -14.074652
v -9.501648 -0.261499 -14.074652
v 13.956055 32.311928 -14.074652
v 13.956055 37.930115 -14.074652
v 13.956055 32.311928 -9.383121
v 13.956055 37.930115 -9.383121
v 9.264526 32.311928 -14.074652
v 9.264526 37.930115 -14.074652
v 9.264526 37.930115 -9.383121
v 9.264526 32.311928 -9.383121
v 9.264526 -0.261499 -9.383121
v 13.956055 -0.261499 -9.383121
v 13.956055 -0.261499 -14.074652
v 9.264526 -0.261499 -14.074652
v -14.193420 32.311928 14.074648
v -14.193420 37.930115 14.074648
v -14.193420 32.311928 9.383121
v -14.193420 37.930115 9.383121
v -9.501648 32.311928 14.074648
v -9.501648 37.930115 14.074648
v -9.501648 37.930115 9.383121
v -9.501648 32.311928 9.383121
v -9.501648 -0.261499 9.383121
v -14.193420 -0.261499 9.383121
v -14.193420 -0.261499 14.074648
v -9.501648 -0.261499 14.074648
v 13.956055 32.311928 14.074648
v 13.956055 37.930115 14.074648
v 13.956055 32.311928 9.383121
v 13.956055 37.930115 9.383121
v 9.264526 32.311928 14.074648
v 9.264526 37.930115 14.074648
v 9.264526 37.930115 9.383121
v 9.264526 32.311928 9.383121
v 9.264526 -0.261499 9.383121
v 13.956055 -0.261499 9.383121
v 13.956055 -0.261499 14.074648
v 9.264526 -0.261499 14.074648
vt 0.697975 0.164810
vt 0.711750 0.164808
vt 0.711752 0.176311
vt 0.697977 0.176313
vt 0.697967 0.118795
vt 0.711742 0.118793
vt 0.618108 0.176326
vt 0.618105 0.164823
vt 0.697965 0.107292
vt 0.711740 0.107290
vt 0.618098 0.118809
vt 0.618096 0.107305
vt 0.526734 0.176359
vt 0.526730 0.164856
vt 0.606601 0.164827
vt 0.606605 0.176330
vt 0.794547 0.164794
vt 0.794549 0.176297
vt 0.780773 0.176299
vt 0.780771 0.164796
vt 0.874416 0.164780
vt 0.874418 0.176283
vt 0.780764 0.118782
vt 0.794539 0.118779
vt 0.780762 0.107278
vt 0.794537 0.107276
vt 0.874406 0.107263
vt 0.874408 0.118766
vt 0.965787 0.176268
vt 0.885921 0.176281
vt 0.885919 0.164778
vt 0.965786 0.164765
vt 0.526722 0.107321
vt 0.606592 0.107307
vt 0.606594 0.118811
vt 0.526724 0.118824
vt 0.965778 0.107248
vt 0.965780 0.118751
vt 0.885912 0.118764
vt 0.885910 0.107261
vt 0.723256 0.176308
vt 0.711752 0.176310
vt 0.723254 0.164806
vt 0.723246 0.118791
vt 0.769268 0.164798
vt 0.769270 0.176301
vt 0.723244 0.107288
vt 0.711741 0.107290
vt 0.769260 0.118784
vt 0.780773 0.176299
vt 0.769258 0.107280
vt 0.780762 0.107278
vt 0.868411 0.095277
vt 0.868409 0.083773
vt 0.914422 0.083764
vt 0.914424 0.095268
vt 0.868400 0.037760
vt 0.914414 0.037751
vt 0.856905 0.083775
vt 0.856897 0.037762
vt 0.868398 0.026256
vt 0.914411 0.026248
vt 0.925917 0.037749
vt 0.925925 0.083762
vt 0.788543 0.095289
vt 0.788541 0.083785
vt 0.711754 0.190086
vt 0.723258 0.190084
vt 0.723272 0.269954
vt 0.711767 0.269956
vt 0.711752 0.176310
vt 0.769273 0.190076
vt 0.780776 0.190074
vt 0.780774 0.176299
vt 0.780789 0.269944
vt 0.769286 0.269946
vt 0.788530 0.037774
vt 0.788528 0.026271
vt 0.769256 0.093505
vt 0.723242 0.093513
vt 0.780760 0.093503
vt 0.780762 0.107278
vt 0.711738 0.093515
vt 0.711740 0.107290
vt 0.769243 0.013636
vt 0.780747 0.013634
vt 0.711725 0.013645
vt 0.723229 0.013643
vt 0.994291 0.083754
vt 0.994292 0.095258
vt 0.994282 0.026228
vt 0.994285 0.037732
vn -1.000000 0.000000 0.000000
vn -1.000000 0.000000 0.000000
vn -1.000000 0.000000 0.000000
vn -1.000000 0.000000 0.000000
vn 0.000000 1.000000 0.000000
vn 0.000000 1.000000 0.000000
vn 0.000000 1.000000 0.000000
vn 0.000000 1.000000 0.000000
vn 0.000000 1.000000 0.000000
vn 0.000000 1.000000 0.000000
vn 0.000000 1.000000 0.000000
vn 0.000000 1.000000 0.000000
vn 0.000000 1.000000 0.000000
vn 0.000000 1.000000 0.000000
vn 0.000000 1.000000 0.000000
vn 0.000000 1.000000 0.000000
vn -1.000000 0.000000 0.000000
vn -1.000000 0.000000 0.000000
vn -1.000000 0.000000 0.000000
vn -1.000000 0.000000 0.000000
vn 0.000000 0.000000 1.000000
vn 0.000000 0.000000 1.000000
vn 0.000000 0.000000 1.000000
vn 0.000000 0.000000 1.000000
vn -0.000000 0.000000 -1.000000
vn -0.000000 0.000000 -1.000000
vn -0.000000 0.000000 -1.000000
vn -0.000000 0.000000 -1.000000
vn 1.000000 0.000000 0.000000
vn 1.000000 0.000000 0.000000
vn 1.000000 0.000000 0.000000
vn 1.000000 0.000000 0.000000
vn 0.000000 -1.000000 0.000000
vn 0.000000 -1.000000 0.000000
vn 0.000000 -1.000000 0.000000
vn 0.000000 -1.000000 0.000000
vn -0.000000 0.000000 -1.000000
vn -0.000000 0.000000 -1.000000
vn -0.000000 0.000000 -1.000000
vn -0.000000 0.000000 -1.000000
vn 1.000000 0.000000 0.000000
vn 1.000000 0.000000 0.000000
vn 1.000000 0.000000 0.000000
vn 1.000000 0.000000 0.000000
vn 0.000000 1.000000 0.000000
vn 0.000000 1.000000 0.000000
vn 0.000000 1.000000 0.000000
vn 0.000000 1.000000 0.000000
vn 1.000000 0.000000 0.000000
vn 1.000000 0.000000 0.000000
vn 1.000000 0.000000 0.000000
vn 1.000000 0.000000 0.000000
vn -0.000000 0.000000 -1.000000
vn -0.000000 0.000000 -1.000000
vn -0.000000 0.000000 -1.000000
vn -0.000000 0.000000 -1.000000
vn 0.000000 0.000000 1.000000
vn 0.000000 0.000000 1.000000
vn 0.000000 0.000000 1.000000
vn 0.000000 0.000000 1.000000
vn -0.000000 0.000000 -1.000000
vn -0.000000 0.000000 -1.000000
vn -0.000000 0.000000 -1.000000
vn -0.000000 0.000000 -1.000000
vn -1.000000 0.000000 0.000000
vn -1.000000 0.000000 0.000000
vn -1.000000 0.000000 0.000000
vn -1.000000 0.000000 0.000000
vn 0.000000 -1.000000 0.000000
vn 0.000000 -1.000000 0.000000
vn 0.000000 -1.000000 0.000000
vn 0.000000 -1.000000 0.000000
vn -0.000000 0.000000 -1.000000
vn -0.000000 0.000000 -1.000000
vn -0.000000 0.000000 -1.000000
vn -0.000000 0.000000 -1.000000
vn -1.000000 0.000000 0.000000
vn -1.000000 0.000000 0.000000
vn -1.000000 0.000000 0.000000
vn -1.000000 0.000000 0.000000
vn 0.000000 1.000000 0.000000
vn 0.000000 1.000000 0.000000
vn 0.000000 1.000000 0.000000
vn 0.000000 1.000000 0.000000
vn 0.000000 1.000000 0.000000
vn 0.000000 1.000000 0.000000
vn 0.000000 1.000000 0.000000
vn 0.000000 1.000000 0.000000
vn 0.000000 1.000000 0.000000
vn 0.000000 1.000000 0.000000
vn 0.000000 1.000000 0.000000
vn 0.000000 1.000000 0.000000
vn 0.000000 1.000000 0.000000
vn 0.000000 1.000000 0.000000
vn 0.000000 1.000000 0.000000
vn 0.000000 1.000000 0.000000
vn -1.000000 0.000000 0.000000
vn -1.000000 0.000000 0.000000
vn -1.000000 0.000000 0.000000
vn -1.000000 0.000000 0.000000
vn 0.000000 0.000000 1.000000
vn 0.000000 0.000000 1.000000
vn 0.000000 0.000000 1.000000
vn 0.000000 0.000000 1.000000
vn 1.000000 0.000000 0.000000
vn 1.000000 0.000000 0.000000
vn 1.000000 0.000000 0.000000
vn 1.000000 0.000000 0.000000
vn -1.000000 0.000000 0.000000
vn -1.000000 0.000000 0.000000
vn -1.000000 0.000000 0.000000
vn -1.000000 0.000000 0.000000
vn -0.000000 0.000000 -1.000000
vn -0.000000 0.000000 -1.000000
vn -0.000000 0.000000 -1.000000
vn -0.000000 0.000000 -1.000000
vn 0.000000 0.000000 1.000000
vn 0.000000 0.000000 1.000000
vn 0.000000 0.000000 1.000000
vn 0.000000 0.000000 1.000000
vn 1.000000 0.000000 0.000000
vn 1.000000 0.000000 0.000000
vn 1.000000 0.000000 0.000000
vn 1.000000 0.000000 0.000000
vn 0.000000 -1.000000 0.000000
vn 0.000000 -1.000000 0.000000
vn 0.000000 -1.000000 0.000000
vn 0.000000 -1.000000 0.000000
vn 0.000000 0.000000 1.000000
vn 0.000000 0.000000 1.000000
vn 0.000000 0.000000 1.000000
vn 0.000000 0.000000 1.000000
vn 1.000000 0.000000 0.000000
vn 1.000000 0.000000 0.000000
vn 1.000000 0.000000 0.000000
vn 1.000000 0.000000 0.000000
vn 0.000000 1.000000 0.000000
vn 0.000000 1.000000 0.000000
vn 0.000000 1.000000 0.000000
vn 0.000000 1.000000 0.000000
vn 1.000000 0.000000 0.000000
vn 1.000000 0.000000 0.000000
vn 1.000000 0.000000 0.000000
vn 1.000000 0.000000 0.000000
vn -0.000000 0.000000 -1.000000
vn -0.000000 0.000000 -1.000000
vn -0.000000 0.000000 -1.000000
vn -0.000000 0.000000 -1.000000
vn 0.000000 0.000000 1.000000
vn 0.000000 0.000000 1.000000
vn 0.000000 0.000000 1.000000
vn 0.000000 0.000000 1.000000
vn -1.000000 0.000000 0.000000
vn -1.000000 0.000000 0.000000
vn -1.000000 0.000000 0.000000
vn -1.000000 0.000000 0.000000
vn 0.000000 -1.000000 0.000000
vn 0.000000 -1.000000 0.000000
vn 0.000000 -1.000000 0.000000
vn 0.000000 -1.000000 0.000000
vn 0.000000 0.000000 1.000000
vn 0.000000 0.000000 1.000000
vn 0.000000 0.000000 1.000000
vn 0.000000 0.000000 1.000000
vn 0.000000 -1.000000 0.000000
vn 0.000000 -1.000000 0.000000
vn 0.000000 -1.000000 0.000000
vn 0.000000 -1.000000 0.000000
vn 0.000000 -1.000000 0.000000
vn 0.000000 -1.000000 0.000000
vn 0.000000 -1.000000 0.000000
vn 0.000000 -1.000000 0.000000
vn 0.000000 -1.000000 0.000000
vn 0.000000 -1.000000 0.000000
vn 0.000000 -1.000000 0.000000
vn 0.000000 -1.000000 0.000000
vn 0.000000 -1.000000 0.000000
vn 0.000000 -1.000000 0.000000
vn 0.000000 -1.000000 0.000000
vn 0.000000 -1.000000 0.000000
vn 0.000000 -1.000000 0.000000
vn 0.000000 -1.000000 0.000000
vn 0.000000 -1.000000 0.000000
vn 0.000000 -1.000000 0.000000
s off
g Small_Table_PIVOT SalaDeEstar
usemtl Small_TableDONESG1
f 3/1/1 4/2/2 2/3/3 1/4/4
f 6/41/5 2/42/6 4/2/7 7/43/8
f 31/44/9 43/49/10 19/45/11 7/43/12
f 7/43/13 4/2/14 28/6/15 31/44/16
f 3/1/17 1/4/18 11/7/19 10/8/20
f 8/54/21 3/53/22 10/65/23 9/66/24
f 1/67/25 5/68/26 12/69/27 11/70/28
f 5/13/29 8/14/30 9/15/31 12/16/32
f 11/7/33 12/16/34 9/15/35 10/8/36
f 1/67/37 2/71/38 6/41/39 5/68/40
f 15/17/41 13/18/42 14/19/43 16/20/44
f 18/46/45 19/45/46 16/20/47 14/50/48
f 15/17/49 22/21/50 23/22/51 13/18/52
f 5/68/53 6/41/54 18/46/55 17/72/56
f 20/57/57 21/77/58 22/78/59 15/61/60
f 13/73/61 23/75/62 24/76/63 17/72/64
f 17/29/65 24/30/66 21/31/67 20/32/68
f 23/22/69 22/21/70 21/31/71 24/30/72
f 13/73/73 17/72/74 18/46/75 14/74/76
f 27/5/77 25/9/78 26/10/79 28/6/80
f 30/47/81 31/44/82 28/6/83 26/48/84
f 7/43/85 19/45/86 18/46/87 6/41/88
f 19/45/89 43/49/90 40/23/91 16/20/92
f 43/49/93 31/44/94 30/47/95 42/51/96
f 3/1/97 27/5/98 28/6/99 4/2/100
f 41/79/101 42/51/102 30/47/103 29/80/104
f 15/17/105 16/20/106 40/23/107 39/24/108
f 27/5/109 34/11/110 35/12/111 25/9/112
f 32/55/113 33/89/114 34/90/115 27/56/116
f 25/83/117 35/87/118 36/88/119 29/80/120
f 29/33/121 36/34/122 33/35/123 32/36/124
f 35/12/125 34/11/126 33/35/127 36/34/128
f 25/83/129 29/80/130 30/47/131 26/84/132
f 39/24/133 40/23/134 38/25/135 37/26/136
f 42/51/137 38/52/138 40/23/139 43/49/140
f 39/24/141 37/26/142 47/27/143 46/28/144
f 44/58/145 39/62/146 46/91/147 45/92/148
f 37/81/149 41/79/150 48/85/151 47/86/152
f 41/37/153 44/38/154 45/39/155 48/40/156
f 47/27/157 48/40/158 45/39/159 46/28/160
f 37/81/161 38/82/162 42/51/163 41/79/164
f 3/53/165 8/54/166 32/55/167 27/56/168
f 8/54/169 5/59/170 17/60/171 20/57/172
f 15/61/173 39/62/174 44/58/175 20/57/176
f 41/63/177 29/64/178 32/55/179 44/58/180
f 32/55/181 8/54/182 20/57/183 44/58/184
