# This file uses centimeters as units for non-parametric coordinates.

mtllib Box.mtl
g default
v 49.966300 51.016504 0.000325
v -49.966300 51.016504 0.000325
v 50.000000 51.000019 49.974642
v -50.000000 51.000019 49.974642
v -49.966300 50.016505 -0.000002
v -50.000000 50.000020 49.974320
v 50.000000 50.000020 49.974320
v 49.966300 50.016505 -0.000002
vn 0.000000 1.000000 0.000330
vn 0.000000 1.000000 0.000330
vn 0.000000 1.000000 0.000330
vn 0.000000 1.000000 0.000330
vn 0.000000 -1.000000 -0.000330
vn 0.000000 -1.000000 -0.000330
vn 0.000000 -1.000000 -0.000330
vn 0.000000 -1.000000 -0.000330
vn -1.000000 0.000000 -0.000674
vn -1.000000 0.000000 -0.000674
vn -1.000000 0.000000 -0.000674
vn -1.000000 0.000000 -0.000674
vn 0.000000 -0.000322 1.000000
vn 0.000000 -0.000322 1.000000
vn 0.000000 -0.000322 1.000000
vn 0.000000 -0.000322 1.000000
vn 1.000000 0.000000 -0.000674
vn 1.000000 0.000000 -0.000674
vn 1.000000 0.000000 -0.000674
vn 1.000000 0.000000 -0.000674
vn 0.000000 0.000328 -1.000000
vn 0.000000 0.000328 -1.000000
vn 0.000000 0.000328 -1.000000
vn 0.000000 0.000328 -1.000000
s off
g Box_FlapL Box
usemtl standardSurface2SG
f 2//1 4//2 3//3 1//4
f 5//5 8//6 7//7 6//8
f 4//9 2//10 5//11 6//12
f 3//13 4//14 6//15 7//16
f 1//17 3//18 7//19 8//20
f 5//21 2//22 1//23 8//24
g default
v -49.966300 51.016504 -0.000342
v 49.966300 51.016504 -0.000342
v -50.000000 51.000003 -49.974658
v 50.000000 51.000003 -49.974658
v 49.966300 50.016505 -0.000014
v 50.000000 50.000004 -49.974336
v -50.000000 50.000004 -49.974336
v -49.966300 50.016505 -0.000014
vn 0.000000 1.000000 -0.000330
vn 0.000000 1.000000 -0.000330
vn 0.000000 1.000000 -0.000330
vn 0.000000 1.000000 -0.000330
vn 0.000000 -1.000000 0.000330
vn 0.000000 -1.000000 0.000330
vn 0.000000 -1.000000 0.000330
vn 0.000000 -1.000000 0.000330
vn 1.000000 0.000000 0.000674
vn 1.000000 0.000000 0.000674
vn 1.000000 0.000000 0.000674
vn 1.000000 0.000000 0.000674
vn 0.000000 -0.000322 -1.000000
vn 0.000000 -0.000322 -1.000000
vn 0.000000 -0.000322 -1.000000
vn 0.000000 -0.000322 -1.000000
vn -1.000000 0.000000 0.000674
vn -1.000000 0.000000 0.000674
vn -1.000000 0.000000 0.000674
vn -1.000000 0.000000 0.000674
vn 0.000000 0.000328 1.000000
vn 0.000000 0.000328 1.000000
vn 0.000000 0.000328 1.000000
vn 0.000000 0.000328 1.000000
s off
g Box Box_FlapR
usemtl standardSurface2SG
f 10//25 12//26 11//27 9//28
f 13//29 16//30 15//31 14//32
f 12//33 10//34 13//35 14//36
f 11//37 12//38 14//39 15//40
f 9//41 11//42 15//43 16//44
f 13//45 10//46 9//47 16//48
g default
v 50.000000 49.999992 -50.000008
v 50.000000 -50.000008 -49.999992
v 50.000000 50.000008 49.999992
v 50.000000 -49.999992 50.000008
v -50.000000 49.999992 -50.000008
v -50.000000 -50.000008 -49.999992
v -50.000000 50.000008 49.999992
v -50.000000 -49.999992 50.000008
v 49.000001 -49.000009 -48.999993
v 49.000001 -48.999993 49.000009
v -49.000001 -49.000009 -48.999993
v -49.000001 -48.999993 49.000009
v 49.000001 49.969555 -49.000009
v -49.000001 49.969571 48.999993
v 49.000001 49.969571 48.999993
v -49.000001 49.969555 -49.000009
vn -1.000000 0.000000 -0.000000
vn -1.000000 0.000000 -0.000000
vn -1.000000 0.000000 -0.000000
vn -1.000000 0.000000 -0.000000
vn 0.000000 -1.000000 0.000000
vn 0.000000 -1.000000 0.000000
vn 0.000000 -1.000000 0.000000
vn 0.000000 -1.000000 0.000000
vn 1.000000 0.000000 0.000000
vn 1.000000 0.000000 0.000000
vn 1.000000 0.000000 0.000000
vn 1.000000 0.000000 0.000000
vn -0.030424 0.999537 -0.000000
vn -0.030424 0.999537 -0.000000
vn -0.030424 0.999537 -0.000000
vn -0.030424 0.999537 -0.000000
vn 0.000000 1.000000 -0.000000
vn 0.000000 1.000000 -0.000000
vn 0.000000 1.000000 -0.000000
vn 0.000000 1.000000 -0.000000
vn 0.000000 0.999537 0.030423
vn 0.000000 0.999537 0.030423
vn 0.000000 0.999537 0.030423
vn 0.000000 0.999537 0.030423
vn 0.030424 0.999537 -0.000000
vn 0.030424 0.999537 -0.000000
vn 0.030424 0.999537 -0.000000
vn 0.030424 0.999537 -0.000000
vn 0.000000 0.000000 1.000000
vn 0.000000 0.000000 1.000000
vn 0.000000 0.000000 1.000000
vn 0.000000 0.000000 1.000000
vn -1.000000 0.000000 -0.000000
vn -1.000000 0.000000 -0.000000
vn -1.000000 0.000000 -0.000000
vn -1.000000 0.000000 -0.000000
vn 1.000000 0.000000 0.000000
vn 1.000000 0.000000 0.000000
vn 1.000000 0.000000 0.000000
vn 1.000000 0.000000 0.000000
vn 0.000000 -0.000000 -1.000000
vn 0.000000 -0.000000 -1.000000
vn 0.000000 -0.000000 -1.000000
vn 0.000000 -0.000000 -1.000000
vn 0.000000 0.999537 -0.030423
vn 0.000000 0.999537 -0.030423
vn 0.000000 0.999537 -0.030423
vn 0.000000 0.999537 -0.030423
vn 0.000000 0.000000 1.000000
vn 0.000000 0.000000 1.000000
vn 0.000000 0.000000 1.000000
vn 0.000000 0.000000 1.000000
vn 0.000000 -0.000000 -1.000000
vn 0.000000 -0.000000 -1.000000
vn 0.000000 -0.000000 -1.000000
vn 0.000000 -0.000000 -1.000000
s off
g Box
usemtl standardSurface2SG
f 24//49 23//50 21//51 22//52
f 22//53 18//54 20//55 24//56
f 18//57 17//58 19//59 20//60
f 17//61 29//62 31//63 19//64
f 27//65 28//66 26//67 25//68
f 17//69 21//70 32//71 29//72
f 23//73 30//74 32//75 21//76
f 27//77 25//78 29//79 32//80
f 25//81 26//82 31//83 29//84
f 28//85 27//86 32//87 30//88
f 26//89 28//90 30//91 31//92
f 23//93 19//94 31//95 30//96
f 19//97 23//98 24//99 20//100
f 22//101 21//102 17//103 18//104
g default
v -49.966300 51.016504 -0.000342
v 49.966300 51.016504 -0.000342
v -50.000000 51.000003 -49.974658
v 50.000000 51.000003 -49.974658
v 49.966300 50.016505 -0.000014
v 50.000000 50.000004 -49.974336
v -50.000000 50.000004 -49.974336
v -49.966300 50.016505 -0.000014
vn 0.000000 1.000000 -0.000330
vn 0.000000 1.000000 -0.000330
vn 0.000000 1.000000 -0.000330
vn 0.000000 1.000000 -0.000330
vn 0.000000 -1.000000 0.000330
vn 0.000000 -1.000000 0.000330
vn 0.000000 -1.000000 0.000330
vn 0.000000 -1.000000 0.000330
vn 1.000000 0.000000 0.000674
vn 1.000000 0.000000 0.000674
vn 1.000000 0.000000 0.000674
vn 1.000000 0.000000 0.000674
vn 0.000000 -0.000322 -1.000000
vn 0.000000 -0.000322 -1.000000
vn 0.000000 -0.000322 -1.000000
vn 0.000000 -0.000322 -1.000000
vn -1.000000 0.000000 0.000674
vn -1.000000 0.000000 0.000674
vn -1.000000 0.000000 0.000674
vn -1.000000 0.000000 0.000674
vn 0.000000 0.000328 1.000000
vn 0.000000 0.000328 1.000000
vn 0.000000 0.000328 1.000000
vn 0.000000 0.000328 1.000000
s off
g Box Box_FlapR
f 34//105 36//106 35//107 33//108
f 37//109 40//110 39//111 38//112
f 36//113 34//114 37//115 38//116
f 35//117 36//118 38//119 39//120
f 33//121 35//122 39//123 40//124
f 37//125 34//126 33//127 40//128
g default
v 49.966300 51.016504 0.000325
v -49.966300 51.016504 0.000325
v 50.000000 51.000019 49.974642
v -50.000000 51.000019 49.974642
v -49.966300 50.016505 -0.000002
v -50.000000 50.000020 49.974320
v 50.000000 50.000020 49.974320
v 49.966300 50.016505 -0.000002
vn 0.000000 1.000000 0.000330
vn 0.000000 1.000000 0.000330
vn 0.000000 1.000000 0.000330
vn 0.000000 1.000000 0.000330
vn 0.000000 -1.000000 -0.000330
vn 0.000000 -1.000000 -0.000330
vn 0.000000 -1.000000 -0.000330
vn 0.000000 -1.000000 -0.000330
vn -1.000000 0.000000 -0.000674
vn -1.000000 0.000000 -0.000674
vn -1.000000 0.000000 -0.000674
vn -1.000000 0.000000 -0.000674
vn 0.000000 -0.000322 1.000000
vn 0.000000 -0.000322 1.000000
vn 0.000000 -0.000322 1.000000
vn 0.000000 -0.000322 1.000000
vn 1.000000 0.000000 -0.000674
vn 1.000000 0.000000 -0.000674
vn 1.000000 0.000000 -0.000674
vn 1.000000 0.000000 -0.000674
vn 0.000000 0.000328 -1.000000
vn 0.000000 0.000328 -1.000000
vn 0.000000 0.000328 -1.000000
vn 0.000000 0.000328 -1.000000
s off
g Box_FlapL Box
f 42//129 44//130 43//131 41//132
f 45//133 48//134 47//135 46//136
f 44//137 42//138 45//139 46//140
f 43//141 44//142 46//143 47//144
f 41//145 43//146 47//147 48//148
f 45//149 42//150 41//151 48//152
