# This file uses centimeters as units for non-parametric coordinates.

mtllib Cuchara_Madera01.mtl
g default
v -20.382019 -0.003122 1.610237
v -20.382019 1.575766 1.610237
v -20.382019 1.575766 -1.610237
v -20.382019 -0.003122 -1.610237
v 18.558624 -0.003137 4.574989
v 18.558640 1.575766 4.574989
v 18.558640 1.575766 -4.574989
v 18.558624 -0.003137 -4.574989
v 28.020935 -0.003137 -4.574989
v 29.690796 -0.003137 -2.287727
v 28.020935 1.575766 -4.574989
v 29.690796 1.575766 -2.287727
v 28.020935 -0.003137 4.574989
v 29.690796 -0.003137 2.287727
v 28.020935 1.575766 4.574989
v 29.690796 1.575766 2.287727
v 12.919937 -0.003122 3.406662
v 6.442535 -0.003122 1.610237
v 6.442535 1.575766 1.610237
v 12.919937 1.575766 3.406654
v 12.919937 1.575766 -3.406654
v 6.442535 1.575766 -1.610237
v 6.442535 -0.003122 -1.610237
v 12.919937 -0.003122 -3.406662
vt 0.164001 0.865113
vt 0.175991 0.861255
vt 0.175975 0.865275
vt 0.167941 0.865180
vt 0.158526 0.764607
vt 0.159196 0.962337
vt 0.159049 0.985964
vt 0.157464 0.741032
vt 0.182034 0.962500
vt 0.185899 0.961729
vt 0.180273 0.740006
vt 0.181885 0.986111
vt 0.164732 0.990169
vt 0.164708 0.994110
vt 0.174380 0.736098
vt 0.176152 0.990242
vt 0.179020 0.777846
vt 0.178845 0.932301
vt 0.167043 0.794416
vt 0.158362 0.947445
vt 0.179221 0.948418
vt 0.174905 0.932235
vt 0.162216 0.948270
vt 0.166864 0.932118
vt 0.175085 0.794256
vt 0.183030 0.947406
vt 0.181339 0.763621
vt 0.185826 0.986134
vt 0.163077 0.931031
vt 0.155255 0.962314
vt 0.162033 0.778507
vt 0.156706 0.989134
vt 0.167946 0.861318
vt 0.179915 0.865342
vt 0.178457 0.993439
vt 0.162974 0.736612
vt 0.176128 0.994182
vt 0.162390 0.993337
vt 0.162923 0.932051
vt 0.158429 0.947177
vt 0.178712 0.931217
vt 0.183084 0.947644
vt 0.184191 0.989305
vt 0.155108 0.985940
vt 0.185974 0.962523
vt 0.155343 0.961509
vn -1.000000 0.000000 0.000000
vn -1.000000 0.000000 0.000000
vn -1.000000 0.000000 0.000000
vn -1.000000 0.000000 0.000000
vn -0.077138 0.000001 -0.997020
vn -0.077137 0.000001 -0.997021
vn 0.000000 0.000000 -1.000000
vn 0.000000 0.000000 -1.000000
vn -0.077137 0.000001 0.997021
vn -0.077138 0.000001 0.997020
vn 0.000000 0.000000 1.000000
vn 0.000000 0.000000 1.000000
vn 0.807661 0.000000 -0.589648
vn 0.807661 0.000000 -0.589648
vn 0.807661 0.000000 -0.589648
vn 0.807661 0.000000 -0.589648
vn 0.807661 0.000000 0.589648
vn 0.807661 0.000000 0.589648
vn 0.807661 0.000000 0.589648
vn 0.807661 0.000000 0.589648
vn 1.000000 0.000000 0.000000
vn 1.000000 0.000000 0.000000
vn 1.000000 0.000000 0.000000
vn 1.000000 0.000000 0.000000
vn 0.000000 1.000000 0.000000
vn 0.000000 1.000000 0.000000
vn 0.000000 1.000000 0.000000
vn 0.000000 1.000000 0.000000
vn 0.000000 1.000000 0.000000
vn 0.000000 1.000000 0.000000
vn 0.000000 1.000000 0.000000
vn 0.000000 1.000000 0.000000
vn 0.000000 -1.000000 0.000000
vn 0.000000 -1.000000 0.000000
vn 0.000000 -1.000000 0.000000
vn 0.000000 -1.000000 0.000000
vn 0.000000 -1.000000 0.000000
vn -0.000000 -1.000000 0.000000
vn -0.000000 -1.000000 0.000000
vn 0.000000 -1.000000 0.000000
vn -0.000001 -1.000000 0.000000
vn 0.000000 -1.000000 0.000000
vn 0.000000 -1.000000 0.000000
vn -0.000001 -1.000000 0.000000
vn -0.053865 0.000000 0.998548
vn -0.237683 0.000001 0.971343
vn -0.237683 0.000001 0.971343
vn -0.053865 0.000000 0.998548
vn 0.000000 1.000000 0.000000
vn 0.000000 1.000000 0.000000
vn 0.000000 1.000000 0.000000
vn 0.000000 1.000000 0.000000
vn -0.053865 0.000000 -0.998548
vn -0.237683 0.000001 -0.971343
vn -0.237683 0.000001 -0.971343
vn -0.053865 0.000000 -0.998548
vn -0.237683 0.000001 0.971343
vn -0.077138 0.000001 0.997020
vn -0.077137 0.000001 0.997021
vn -0.237683 0.000001 0.971343
vn -0.237683 0.000001 -0.971343
vn -0.077137 0.000001 -0.997021
vn -0.077138 0.000001 -0.997020
vn -0.237683 0.000001 -0.971343
vn 0.000000 0.000000 1.000000
vn -0.053865 0.000000 0.998548
vn -0.053865 0.000000 0.998548
vn 0.000000 0.000000 1.000000
vn 0.000000 0.000000 -1.000000
vn -0.053865 0.000000 -0.998548
vn -0.053865 0.000000 -0.998548
vn 0.000000 0.000000 -1.000000
vn 0.000000 1.000000 0.000000
vn 0.000000 1.000000 0.000000
vn 0.000000 1.000000 0.000000
vn 0.000000 1.000000 0.000000
vn 0.000000 1.000000 0.000000
vn 0.000000 1.000000 0.000000
vn 0.000000 1.000000 0.000000
vn 0.000000 1.000000 0.000000
vn 0.000000 -1.000000 0.000000
vn 0.000000 -1.000000 0.000000
vn 0.000000 -1.000000 0.000000
vn 0.000000 -1.000000 0.000000
vn -0.000000 -1.000000 0.000000
vn -0.000001 -1.000000 0.000000
vn -0.000001 -1.000000 0.000000
vn -0.000000 -1.000000 0.000000
s off
g Wooden_Spoon_2_PIVOT Kitchen_Props Cocina
usemtl standardSurface23SG
f 4/33/1 1/2/2 2/3/3 3/4/4
f 8/30/5 7/6/6 11/7/7 9/44/8
f 6/9/9 5/45/10 13/28/11 15/12/12
f 12/13/13 10/38/14 9/32/15 11/7/16
f 13/43/17 14/35/18 16/16/19 15/12/20
f 12/13/21 16/16/22 14/37/23 10/14/24
f 15/12/25 16/16/26 12/13/27 11/7/28
f 11/7/29 7/6/30 6/9/31 15/12/32
f 9/8/33 10/36/34 14/15/35 13/11/36
f 13/11/37 5/27/38 8/5/39 9/8/40
f 17/17/41 18/25/42 23/19/43 24/31/44
f 18/41/45 17/26/46 20/21/47 19/22/48
f 19/22/49 20/21/50 21/23/51 22/24/52
f 22/24/53 21/23/54 24/40/55 23/29/56
f 17/42/57 5/10/58 6/9/59 20/21/60
f 21/23/61 7/6/62 8/46/63 24/20/64
f 1/34/65 18/18/66 19/22/67 2/3/68
f 3/4/69 22/24/70 23/39/71 4/1/72
f 20/21/73 6/9/74 7/6/75 21/23/76
f 22/24/77 3/4/78 2/3/79 19/22/80
f 18/25/81 1/2/82 4/33/83 23/19/84
f 5/27/85 17/17/86 24/31/87 8/5/88
