# This file uses centimeters as units for non-parametric coordinates.

mtllib Rollo_Papel.mtl
g default
v 12.919739 -0.083711 -7.459215
v 7.459214 -0.083711 -12.919719
v 0.000000 -0.083711 -14.918429
v -7.459214 -0.083711 -12.919719
v -12.919739 -0.083711 -7.459215
v -14.918428 -0.083711 0.000000
v -12.919739 -0.083711 7.459215
v -7.459214 -0.083711 12.919761
v 0.000000 -0.083711 14.918429
v 7.459214 -0.083711 12.919761
v 12.919739 -0.083711 7.459215
v 14.918428 -0.083711 0.000000
v 12.919739 29.753145 -7.459215
v 7.459214 29.753145 -12.919719
v 0.000000 29.753145 -14.918429
v -7.459214 29.753145 -12.919719
v -12.919739 29.753145 -7.459215
v -14.918428 29.753145 0.000000
v -12.919739 29.753145 7.459215
v -7.459214 29.753145 12.919761
v 0.000000 29.753145 14.918429
v 7.459214 29.753145 12.919761
v 12.919739 29.753145 7.459215
v 14.918428 29.753145 0.000000
v 4.222959 -0.083711 -2.438108
v 2.438119 -0.083711 -4.222954
v 0.000000 -0.083711 -4.876245
v -2.438119 -0.083711 -4.222954
v -4.222959 -0.083711 -2.438108
v -4.876250 -0.083711 0.000000
v -4.222957 -0.083711 2.438136
v -2.438127 -0.083711 4.222954
v 0.000000 -0.083711 4.876245
v 2.438127 -0.083711 4.222954
v 4.222957 -0.083711 2.438136
v 4.876250 -0.083711 0.000000
v 4.222959 29.753145 -2.438108
v 2.438119 29.753145 -4.222954
v 0.000000 29.753145 -4.876245
v -2.438119 29.753145 -4.222954
v -4.222959 29.753145 -2.438108
v -4.876250 29.753145 0.000000
v -4.222957 29.753145 2.438136
v -2.438127 29.753145 4.222954
v 0.000000 29.753145 4.876245
v 2.438127 29.753145 4.222954
v 4.222957 29.753145 2.438136
v 4.876250 29.753145 0.000000
vt 0.827098 0.186963
vt 0.850130 0.202516
vt 0.877853 0.204470
vt 0.902838 0.192301
vt 0.918392 0.169269
vt 0.920346 0.141546
vt 0.908176 0.116560
vt 0.885145 0.101007
vt 0.857422 0.099053
vt 0.832436 0.111223
vt 0.816883 0.134254
vt 0.814929 0.161977
vt 0.984060 0.014250
vt 0.984060 0.029701
vt 0.984060 0.045152
vt 0.984060 0.060603
vt 0.984060 0.076054
vt 0.984060 0.091504
vt 0.984060 0.106955
vt 0.984060 0.122406
vt 0.984060 0.137857
vt 0.984060 0.153307
vt 0.984060 0.168758
vt 0.984060 0.184209
vt 0.984060 0.199660
vt 0.924362 0.014250
vt 0.924362 0.029701
vt 0.924362 0.045152
vt 0.924362 0.060603
vt 0.924362 0.076053
vt 0.924362 0.091504
vt 0.924362 0.106955
vt 0.924362 0.122406
vt 0.924362 0.137857
vt 0.924362 0.153307
vt 0.924362 0.168758
vt 0.924362 0.184209
vt 0.924362 0.199660
vt 0.850148 0.202523
vt 0.877872 0.204466
vt 0.902853 0.192288
vt 0.918398 0.169251
vt 0.920342 0.141527
vt 0.908163 0.116546
vt 0.885126 0.101001
vt 0.857403 0.099057
vt 0.832421 0.111235
vt 0.816876 0.134272
vt 0.814932 0.161996
vt 0.827111 0.186978
vt 0.918834 0.055152
vt 0.918835 0.061406
vt 0.918834 0.048899
vt 0.918834 0.042645
vt 0.918835 0.036392
vt 0.918834 0.030138
vt 0.918835 0.023885
vt 0.918834 0.017632
vt 0.918834 0.011378
vt 0.918834 0.080166
vt 0.918835 0.073913
vt 0.918834 0.067659
vt 0.844915 0.061406
vt 0.844914 0.055152
vt 0.844914 0.048899
vt 0.844915 0.042645
vt 0.844915 0.036392
vt 0.844915 0.030138
vt 0.844915 0.023885
vt 0.844915 0.017632
vt 0.844914 0.086420
vt 0.844914 0.080166
vt 0.844915 0.073913
vt 0.844914 0.067659
vt 0.854391 0.163272
vt 0.850410 0.155107
vt 0.861921 0.168353
vt 0.870982 0.168989
vt 0.879148 0.165008
vt 0.884229 0.157478
vt 0.884864 0.148416
vt 0.880884 0.140251
vt 0.873353 0.135170
vt 0.864292 0.134534
vt 0.856127 0.138515
vt 0.851045 0.146045
vt 0.844915 0.011378
vt 0.850409 0.155100
vt 0.854387 0.163267
vt 0.851048 0.146039
vt 0.856132 0.138511
vt 0.864298 0.134533
vt 0.918834 0.086420
vt 0.873360 0.135172
vt 0.880888 0.140256
vt 0.884866 0.148422
vt 0.884227 0.157484
vt 0.879143 0.165012
vt 0.870976 0.168990
vt 0.861915 0.168351
vn 0.707105 0.000000 -0.707108
vn 0.707105 0.000000 -0.707108
vn 0.707105 0.000000 -0.707108
vn 0.707105 0.000000 -0.707108
vn 0.258822 0.000000 -0.965925
vn 0.258822 0.000000 -0.965925
vn 0.258822 0.000000 -0.965925
vn 0.258822 0.000000 -0.965925
vn -0.258822 0.000000 -0.965925
vn -0.258822 0.000000 -0.965925
vn -0.258822 0.000000 -0.965925
vn -0.258822 0.000000 -0.965925
vn -0.707105 0.000000 -0.707108
vn -0.707105 0.000000 -0.707108
vn -0.707105 0.000000 -0.707108
vn -0.707105 0.000000 -0.707108
vn -0.965926 0.000000 -0.258819
vn -0.965926 0.000000 -0.258819
vn -0.965926 0.000000 -0.258819
vn -0.965926 0.000000 -0.258819
vn -0.965926 0.000000 0.258819
vn -0.965926 0.000000 0.258819
vn -0.965926 0.000000 0.258819
vn -0.965926 0.000000 0.258819
vn -0.707108 0.000000 0.707105
vn -0.707108 0.000000 0.707105
vn -0.707108 0.000000 0.707105
vn -0.707108 0.000000 0.707105
vn -0.258816 0.000000 0.965927
vn -0.258816 0.000000 0.965927
vn -0.258816 0.000000 0.965927
vn -0.258816 0.000000 0.965927
vn 0.258816 0.000000 0.965927
vn 0.258816 0.000000 0.965927
vn 0.258816 0.000000 0.965927
vn 0.258816 0.000000 0.965927
vn 0.707108 0.000000 0.707105
vn 0.707108 0.000000 0.707105
vn 0.707108 0.000000 0.707105
vn 0.707108 0.000000 0.707105
vn 0.965926 0.000000 0.258819
vn 0.965926 0.000000 0.258819
vn 0.965926 0.000000 0.258819
vn 0.965926 0.000000 0.258819
vn 0.965926 0.000000 -0.258819
vn 0.965926 0.000000 -0.258819
vn 0.965926 0.000000 -0.258819
vn 0.965926 0.000000 -0.258819
vn 0.000000 -1.000000 0.000000
vn 0.000000 -1.000000 -0.000000
vn 0.000000 -1.000000 -0.000000
vn 0.000000 -1.000000 0.000000
vn 0.000000 -1.000000 0.000000
vn 0.000000 -1.000000 0.000000
vn 0.000000 -1.000000 0.000000
vn 0.000000 -1.000000 0.000000
vn 0.000000 -1.000000 -0.000000
vn 0.000000 -1.000000 -0.000000
vn 0.000000 -1.000000 0.000000
vn 0.000000 -1.000000 -0.000000
vn 0.000000 -1.000000 0.000000
vn 0.000000 -1.000000 0.000000
vn 0.000000 -1.000000 0.000000
vn 0.000000 -1.000000 0.000000
vn 0.000000 -1.000000 0.000000
vn 0.000000 -1.000000 0.000000
vn 0.000000 -1.000000 -0.000000
vn 0.000000 -1.000000 -0.000000
vn 0.000000 -1.000000 -0.000000
vn 0.000000 -1.000000 -0.000000
vn 0.000000 -1.000000 0.000000
vn 0.000000 -1.000000 -0.000000
vn 0.000000 1.000000 -0.000000
vn 0.000000 1.000000 -0.000000
vn 0.000000 1.000000 -0.000000
vn 0.000000 1.000000 -0.000000
vn 0.000000 1.000000 0.000000
vn 0.000000 1.000000 0.000000
vn 0.000000 1.000000 -0.000000
vn 0.000000 1.000000 0.000000
vn 0.000000 1.000000 -0.000000
vn 0.000000 1.000000 -0.000000
vn 0.000000 1.000000 -0.000000
vn 0.000000 1.000000 -0.000000
vn 0.000000 1.000000 0.000000
vn 0.000000 1.000000 0.000000
vn 0.000000 1.000000 0.000000
vn 0.000000 1.000000 0.000000
vn 0.000000 1.000000 -0.000000
vn 0.000000 1.000000 -0.000000
vn 0.000000 1.000000 -0.000000
vn 0.000000 1.000000 -0.000000
vn 0.000000 1.000000 0.000000
vn 0.000000 1.000000 0.000000
vn 0.000000 1.000000 0.000000
vn 0.000000 1.000000 0.000000
vn -0.707108 0.000000 0.707106
vn -0.707108 0.000000 0.707106
vn -0.707108 0.000000 0.707106
vn -0.707108 0.000000 0.707106
vn -0.965926 0.000000 0.258820
vn -0.965926 0.000000 0.258820
vn -0.965926 0.000000 0.258820
vn -0.965926 0.000000 0.258820
vn -0.965926 0.000000 -0.258818
vn -0.965926 0.000000 -0.258818
vn -0.965926 0.000000 -0.258818
vn -0.965926 0.000000 -0.258818
vn -0.707104 0.000000 -0.707109
vn -0.707104 0.000000 -0.707109
vn -0.707104 0.000000 -0.707109
vn -0.707104 0.000000 -0.707109
vn -0.258818 0.000000 -0.965926
vn -0.258818 0.000000 -0.965926
vn -0.258818 0.000000 -0.965926
vn -0.258818 0.000000 -0.965926
vn 0.258818 0.000000 -0.965926
vn 0.258818 0.000000 -0.965926
vn 0.258818 0.000000 -0.965926
vn 0.258818 0.000000 -0.965926
vn 0.707104 0.000000 -0.707109
vn 0.707104 0.000000 -0.707109
vn 0.707104 0.000000 -0.707109
vn 0.707104 0.000000 -0.707109
vn 0.965926 0.000000 -0.258818
vn 0.965926 0.000000 -0.258818
vn 0.965926 0.000000 -0.258818
vn 0.965926 0.000000 -0.258818
vn 0.965926 0.000000 0.258820
vn 0.965926 0.000000 0.258820
vn 0.965926 0.000000 0.258820
vn 0.965926 0.000000 0.258820
vn 0.707108 0.000000 0.707106
vn 0.707108 0.000000 0.707106
vn 0.707108 0.000000 0.707106
vn 0.707108 0.000000 0.707106
vn 0.258819 0.000000 0.965926
vn 0.258819 0.000000 0.965926
vn 0.258819 0.000000 0.965926
vn 0.258819 0.000000 0.965926
vn -0.258819 0.000000 0.965926
vn -0.258819 0.000000 0.965926
vn -0.258819 0.000000 0.965926
vn -0.258819 0.000000 0.965926
s off
g Rollo_Papel_PIVOT Kitchen_Props Cocina
usemtl standardSurface23SG
f 1/13/1 2/14/2 14/27/3 13/26/4
f 2/14/5 3/15/6 15/28/7 14/27/8
f 3/15/9 4/16/10 16/29/11 15/28/12
f 4/16/13 5/17/14 17/30/15 16/29/16
f 5/17/17 6/18/18 18/31/19 17/30/20
f 6/18/21 7/19/22 19/32/23 18/31/24
f 7/19/25 8/20/26 20/33/27 19/32/28
f 8/20/29 9/21/30 21/34/31 20/33/32
f 9/21/33 10/22/34 22/35/35 21/34/36
f 10/22/37 11/23/38 23/36/39 22/35/40
f 11/23/41 12/24/42 24/37/43 23/36/44
f 12/24/45 1/25/46 13/38/47 24/37/48
s 1
f 2/2/49 1/1/50 25/89/51 26/100/52
f 3/3/53 2/2/49 26/100/52 27/99/54
f 4/4/55 3/3/53 27/99/54 28/98/56
f 5/5/57 4/4/55 28/98/56 29/97/58
f 6/6/59 5/5/57 29/97/58 30/96/60
f 7/7/61 6/6/59 30/96/60 31/95/62
f 8/8/63 7/7/61 31/95/62 32/94/64
f 9/9/65 8/8/63 32/94/64 33/92/66
f 10/10/67 9/9/65 33/92/66 34/91/68
f 11/11/69 10/10/67 34/91/68 35/90/70
f 12/12/71 11/11/69 35/90/70 36/88/72
f 1/1/50 12/12/71 36/88/72 25/89/51
s 2
f 13/49/73 14/48/74 38/86/75 37/76/76
f 14/48/74 15/47/77 39/85/78 38/86/75
f 15/47/77 16/46/79 40/84/80 39/85/78
f 16/46/79 17/45/81 41/83/82 40/84/80
f 17/45/81 18/44/83 42/82/84 41/83/82
f 18/44/83 19/43/85 43/81/86 42/82/84
f 19/43/85 20/42/87 44/80/88 43/81/86
f 20/42/87 21/41/89 45/79/90 44/80/88
f 21/41/89 22/40/91 46/78/92 45/79/90
f 22/40/91 23/39/93 47/77/94 46/78/92
f 23/39/93 24/50/95 48/75/96 47/77/94
f 24/50/95 13/49/73 37/76/76 48/75/96
s off
f 26/51/97 25/52/98 37/63/99 38/64/100
f 25/52/101 36/62/102 48/74/103 37/63/104
f 36/62/105 35/61/106 47/73/107 48/74/108
f 35/61/109 34/60/110 46/72/111 47/73/112
f 34/60/113 33/93/114 45/71/115 46/72/116
f 33/59/117 32/58/118 44/70/119 45/87/120
f 32/58/121 31/57/122 43/69/123 44/70/124
f 31/57/125 30/56/126 42/68/127 43/69/128
f 30/56/129 29/55/130 41/67/131 42/68/132
f 29/55/133 28/54/134 40/66/135 41/67/136
f 28/54/137 27/53/138 39/65/139 40/66/140
f 27/53/141 26/51/142 38/64/143 39/65/144
